<?xml version="1.0" standalone="no"?>
<!DOCTYPE svg PUBLIC "-//W3C//DTD SVG 20010904//EN"
 "http://www.w3.org/TR/2001/REC-SVG-20010904/DTD/svg10.dtd">
<svg version="1.0" xmlns="http://www.w3.org/2000/svg"
 width="433.000000pt" height="577.000000pt" viewBox="0 0 433.000000 577.000000"
 preserveAspectRatio="xMidYMid meet">

<g transform="translate(0.000000,577.000000) scale(0.100000,-0.100000)"
fill="#000000" stroke="none">
<path d="M1851 4679 c-310 -28 -583 -124 -842 -297 -413 -276 -682 -689 -775
-1187 -26 -135 -26 -478 -1 -608 9 -49 16 -92 15 -95 -1 -4 2 -14 5 -22 3 -8
24 -71 47 -140 86 -262 212 -476 392 -666 38 -39 68 -74 68 -78 0 -4 -13 -19
-30 -33 -16 -13 -30 -31 -30 -39 0 -7 -10 -19 -22 -25 -29 -15 -168 -139 -168
-149 0 -19 33 0 87 51 33 29 89 80 127 112 l68 57 71 -59 c480 -392 1127 -512
1712 -317 458 154 842 492 1049 926 137 288 183 513 173 843 -7 225 -35 368
-118 594 l-22 62 139 140 c76 78 138 146 136 152 -1 6 1 8 6 5 32 -20 289 354
356 519 l17 40 -25 -30 c-14 -16 -23 -37 -20 -45 3 -8 2 -11 -2 -7 -4 4 -16 0
-26 -9 -14 -13 -15 -20 -7 -31 9 -11 9 -12 -4 -7 -10 3 -32 -11 -64 -43 -27
-26 -70 -65 -96 -87 -26 -21 -44 -43 -40 -49 3 -5 2 -7 -4 -4 -5 3 -59 -33
-119 -80 -60 -47 -142 -107 -182 -133 -40 -25 -70 -49 -67 -51 3 -3 -1 -6 -8
-6 -6 0 -32 -12 -56 -28 -45 -28 -45 -28 -60 -7 -9 11 -45 60 -81 108 -310
420 -768 675 -1300 723 -128 12 -162 12 -299 0z m189 -154 c0 -2 -7 -5 -15 -9
-9 -3 -15 0 -15 9 0 9 6 12 15 9 8 -4 15 -7 15 -9z m350 -190 c0 -8 -7 -15
-15 -15 -16 0 -20 12 -8 23 11 12 23 8 23 -8z m-466 -4 c3 -5 -1 -12 -10 -15
-20 -8 -29 -1 -19 13 8 13 22 14 29 2z m211 -32 c0 -7 -8 -15 -17 -17 -18 -3
-25 18 -11 32 10 10 28 1 28 -15z m-445 -125 c0 -17 -22 -14 -28 4 -2 7 3 12
12 12 9 0 16 -7 16 -16z m281 -7 c-13 -13 -26 -3 -16 12 3 6 11 8 17 5 6 -4 6
-10 -1 -17z m2142 16 c-7 -2 -19 -2 -25 0 -7 3 -2 5 12 5 14 0 19 -2 13 -5z
m-2385 -34 c-2 -6 -8 -10 -13 -10 -5 0 -11 4 -13 10 -2 6 4 11 13 11 9 0 15
-5 13 -11z m40 -38 c3 -8 -1 -12 -9 -9 -7 2 -15 10 -17 17 -3 8 1 12 9 9 7 -2
15 -10 17 -17z m2215 4 c-3 -9 -8 -14 -10 -11 -3 3 -2 9 2 15 9 16 15 13 8 -4z
m-1853 -15 c0 -5 -7 -10 -16 -10 -8 0 -12 5 -9 10 3 6 10 10 16 10 5 0 9 -4 9
-10z m-420 -35 c0 -8 -7 -15 -15 -15 -16 0 -20 12 -8 23 11 12 23 8 23 -8z
m-280 -1 c0 -23 -17 -34 -54 -34 -24 0 -64 -10 -92 -24 -27 -13 -58 -27 -69
-31 -11 -4 -15 -9 -9 -12 15 -5 -26 -83 -43 -83 -13 0 -11 -297 2 -339 6 -17
5 -22 -3 -17 -8 4 -8 -3 -1 -26 5 -18 9 -35 9 -37 0 -2 3 -1 7 3 4 4 17 -20
28 -53 15 -45 38 -82 90 -142 l70 -81 3 92 c3 101 -11 140 -48 140 -11 0 -20
7 -20 15 0 12 16 15 80 15 44 0 80 -3 80 -7 0 -4 -12 -17 -26 -28 l-26 -21 -1
-193 c0 -146 -3 -194 -13 -198 -12 -4 33 -85 111 -201 l23 -34 250 1 250 1 4
-55 c2 -46 0 -55 -14 -55 -11 0 -18 10 -20 27 -4 38 -39 53 -125 53 l-73 0 0
-85 0 -86 78 3 c69 3 78 5 87 26 17 39 35 26 35 -27 0 -39 -4 -50 -19 -54 -10
-2 -25 -1 -32 4 -8 5 -45 9 -83 9 l-68 0 4 -65 c4 -65 4 -66 -29 -86 -18 -12
-30 -26 -27 -31 4 -7 2 -8 -4 -4 -6 4 -23 -1 -37 -10 -22 -14 -43 -15 -177 -8
l-152 9 3 89 c2 58 -1 86 -7 82 -6 -3 -13 -2 -17 4 -3 6 1 13 9 16 13 5 16 24
16 100 0 81 -2 95 -19 103 -10 6 -21 7 -25 4 -3 -3 -6 3 -6 15 0 19 4 20 75
15 41 -3 75 -3 75 1 0 17 -34 56 -49 57 -10 0 -11 2 -3 6 9 3 7 12 -7 32 -11
15 -31 49 -44 76 -14 26 -96 128 -183 225 l-159 177 -3 -121 c-3 -146 0 -160
38 -183 17 -9 30 -20 30 -23 0 -3 -37 -4 -82 -4 -81 1 -112 15 -67 29 13 4 28
13 34 19 6 7 10 77 10 184 l0 172 -33 6 c-18 4 -31 11 -29 18 5 14 197 17 215
3 10 -8 11 -5 3 16 -16 41 -31 140 -37 232 -4 78 -3 84 13 79 17 -5 17 -5 0 9
-15 13 -16 21 -8 60 17 74 29 97 51 97 11 0 20 7 20 16 0 8 -4 12 -10 9 -5 -3
-10 -2 -10 4 0 21 74 81 106 87 19 3 37 10 40 16 5 7 114 10 114 2z m121 -20
c89 -26 359 -173 359 -195 0 -5 5 -9 11 -9 12 0 145 -104 221 -172 35 -32 45
-47 39 -57 -8 -12 -16 -9 -44 15 -19 16 -75 63 -124 105 -105 89 -230 173
-329 220 -42 20 -69 39 -66 47 2 7 -2 10 -12 6 -25 -10 -85 5 -106 26 -10 10
-26 20 -37 23 -13 3 -11 5 8 6 14 0 50 -6 80 -15z m2404 5 c11 -16 1 -19 -13
-3 -7 8 -8 14 -3 14 5 0 13 -5 16 -11z m33 -46 c-10 -2 -18 -9 -18 -14 0 -5
-5 -9 -11 -9 -8 0 -8 5 1 15 7 8 20 14 29 14 13 -1 13 -2 -1 -6z m-1601 -63
c-1 -11 -5 -20 -9 -20 -11 0 -20 19 -13 30 11 17 24 11 22 -10z m-1017 -115
c0 -8 -7 -15 -15 -15 -16 0 -20 12 -8 23 11 12 23 8 23 -8z m187 -21 c8 -21
-13 -42 -28 -27 -13 13 -5 43 11 43 6 0 13 -7 17 -16z m2028 7 c3 -5 2 -12 -3
-15 -5 -3 -9 1 -9 9 0 17 3 19 12 6z m-65 -14 c0 -7 -6 -21 -12 -30 -12 -16
-13 -15 -13 7 0 13 3 22 8 19 4 -2 7 1 7 6 0 6 2 11 5 11 3 0 5 -6 5 -13z
m-2090 -53 c0 -9 -5 -14 -12 -12 -18 6 -21 28 -4 28 9 0 16 -7 16 -16z m1925
-34 c-3 -5 -12 -10 -18 -10 -7 0 -6 4 3 10 19 12 23 12 15 0z m-85 -44 c0 -2
-7 -7 -16 -10 -8 -3 -12 -2 -9 4 6 10 25 14 25 6z m-75 -36 c-3 -5 -12 -10
-18 -10 -7 0 -6 4 3 10 19 12 23 12 15 0z m56 -7 c13 -16 12 -17 -3 -4 -17 13
-22 21 -14 21 2 0 10 -8 17 -17z m-1020 -39 c17 -18 19 -23 6 -18 -10 3 -17 1
-17 -5 0 -6 14 -14 31 -18 19 -4 44 -22 67 -49 l36 -44 73 0 c56 0 73 -3 73
-14 0 -7 -9 -16 -20 -19 -22 -6 -44 -52 -33 -70 6 -10 5 -197 -2 -277 -2 -19
-4 -43 -4 -52 -1 -13 -10 -18 -33 -18 -27 0 -42 10 -87 60 -46 50 -57 58 -70
48 -13 -10 -14 -10 -4 2 13 14 -18 57 -129 177 l-48 52 0 -134 c0 -142 7 -165
51 -165 12 0 19 -7 19 -20 0 -19 -6 -20 -215 -17 -191 2 -215 4 -215 18 0 10
11 19 30 23 36 7 40 35 13 91 l-17 35 -77 0 -77 0 -21 -51 c-25 -57 -18 -79
25 -79 17 0 24 -6 24 -20 0 -20 -5 -21 -87 -18 -94 3 -117 18 -63 40 28 12 39
30 106 187 52 120 73 182 69 198 -5 23 -4 23 73 23 l78 0 64 -156 c35 -85 68
-158 72 -160 4 -3 8 -13 8 -23 0 -26 38 -71 60 -71 33 0 40 33 40 197 0 164
-4 183 -42 183 -10 0 -18 6 -18 14 0 10 22 13 103 12 106 -1 132 -8 123 -32
-3 -8 1 -14 8 -14 7 0 51 -42 97 -94 46 -52 87 -95 92 -95 4 -1 7 18 7 42 0
23 3 51 6 63 4 14 -3 31 -20 51 -19 22 -23 33 -14 37 8 3 6 4 -4 3 -19 -2
-161 147 -172 181 -10 29 5 28 35 -4z m859 -8 c0 -2 -7 -7 -16 -10 -8 -3 -12
-2 -9 4 6 10 25 14 25 6z m460 -49 c0 -2 -10 -12 -22 -23 l-23 -19 19 23 c18
21 26 27 26 19z m-594 -19 c4 -7 3 -8 -5 -4 -6 4 -23 1 -36 -8 -13 -9 -30 -16
-37 -16 -12 1 50 39 64 40 4 0 10 -5 14 -12z m-86 -58 c25 -7 36 -7 43 3 6 8
7 7 4 -4 -4 -11 3 -20 19 -28 32 -14 37 -14 28 2 -4 6 -5 10 -1 7 3 -3 6 -9 7
-15 3 -19 22 -35 34 -28 6 3 8 3 4 -2 -11 -12 11 -45 30 -45 11 0 13 -3 5 -8
-8 -5 -8 -19 2 -57 11 -46 11 -51 -7 -63 -10 -7 -15 -18 -12 -24 4 -7 2 -8 -4
-4 -14 8 -124 -72 -116 -85 3 -5 -1 -7 -8 -4 -10 4 -13 34 -13 113 -1 91 -4
113 -23 150 -12 23 -29 42 -38 42 -12 0 -13 4 -3 22 l12 21 -37 -21 c-36 -22
-66 -31 -36 -12 8 5 10 10 3 10 -18 0 -61 -58 -73 -98 -5 -20 -10 -55 -10 -77
0 -23 -5 -46 -12 -53 -9 -9 -9 -12 0 -12 6 0 17 -21 23 -46 7 -28 25 -59 45
-80 32 -31 33 -34 15 -44 -11 -5 -27 -10 -35 -10 -10 0 -13 -6 -10 -15 9 -23
-24 -18 -38 5 -7 12 -32 32 -55 46 -140 82 -129 310 18 384 72 37 171 50 239
30z m487 3 c-4 -3 1 -12 11 -20 15 -13 15 -13 -6 -3 -19 9 -23 30 -5 30 4 0 3
-3 0 -7z m83 -17 c0 -2 -8 -10 -17 -17 -16 -13 -17 -12 -4 4 13 16 21 21 21
13z m-113 -20 c0 -8 -6 -12 -15 -9 -11 5 -11 7 0 14 7 5 13 9 14 9 0 0 1 -6 1
-14z m32 -30 c9 -11 9 -16 -1 -22 -7 -4 -10 -4 -6 1 4 4 3 14 -3 22 -6 7 -9
13 -6 13 2 0 10 -6 16 -14z m-259 -21 c0 -2 -10 -9 -22 -15 -22 -11 -22 -10
-4 4 21 17 26 19 26 11z m235 -15 c-3 -5 -12 -10 -18 -10 -7 0 -6 4 3 10 19
12 23 12 15 0z m-835 -26 c0 -8 -19 -13 -24 -6 -3 5 1 9 9 9 8 0 15 -2 15 -3z
m683 -13 c-12 -10 -20 -21 -18 -23 3 -3 -2 -5 -12 -5 -11 0 -8 7 13 24 34 27
49 31 17 4z m-453 -5 c0 -2 -7 -7 -16 -10 -8 -3 -12 -2 -9 4 6 10 25 14 25 6z
m470 -50 c0 -2 -8 -10 -17 -17 -16 -13 -17 -12 -4 4 13 16 21 21 21 13z m-445
-46 c-3 -5 -12 -10 -18 -10 -7 0 -6 4 3 10 19 12 23 12 15 0z m255 -120 c-29
-41 -101 -81 -152 -86 -29 -2 -38 -1 -28 5 8 6 17 8 21 5 4 -2 43 20 86 50 43
29 82 54 86 55 5 0 -1 -12 -13 -29z m-215 -260 l26 -55 62 -1 c34 -1 82 -7
107 -14 32 -9 45 -9 48 -1 2 6 12 11 22 11 16 0 18 -9 19 -75 0 -41 -3 -75 -8
-75 -5 0 -20 19 -33 43 -29 54 -77 80 -136 74 -24 -3 -45 -7 -48 -10 -3 -3 3
-22 14 -44 21 -41 87 -238 97 -290 4 -18 10 -33 13 -33 20 0 73 43 87 69 10
20 20 28 30 25 8 -4 13 -9 11 -13 -2 -3 -11 -32 -20 -63 l-17 -58 -44 0 -44 0
6 -66 c5 -55 4 -66 -8 -62 -9 3 -16 25 -19 61 -5 51 -20 92 -20 54 0 -18 -25
-23 -34 -8 -3 4 -33 11 -67 14 -194 17 -290 200 -186 353 29 43 43 53 135 101
8 4 -71 143 -82 144 -6 0 -2 4 9 9 24 10 42 -10 80 -90z m-126 57 c-2 -1 -11
-8 -21 -15 -12 -10 -18 -10 -24 -1 -4 7 -3 9 4 5 6 -3 13 -2 17 4 3 5 11 10
17 10 6 0 9 -1 7 -3z m-1499 -11 c0 -3 -4 -8 -10 -11 -5 -3 -10 -1 -10 4 0 6
5 11 10 11 6 0 10 -2 10 -4z m477 -2 c-3 -3 -12 -4 -19 -1 -8 3 -5 6 6 6 11 1
17 -2 13 -5z m-80 -20 c-3 -3 -12 -4 -19 -1 -8 3 -5 6 6 6 11 1 17 -2 13 -5z
m-522 -24 c-11 -5 -27 -9 -35 -9 -9 0 -8 4 5 9 11 5 27 9 35 9 9 0 8 -4 -5 -9z
m1505 -24 c0 -2 -7 -7 -16 -10 -8 -3 -12 -2 -9 4 6 10 25 14 25 6z m-1864 -46
c11 -5 28 -3 38 2 26 15 37 -2 40 -62 2 -39 -1 -53 -12 -58 -9 -3 -18 0 -20 6
-2 7 -8 10 -13 7 -5 -4 -6 0 -3 8 3 8 -5 27 -18 42 -30 34 -106 47 -127 21
-24 -29 -5 -59 64 -99 123 -71 165 -128 150 -198 -18 -82 -106 -128 -218 -114
-34 4 -77 7 -94 6 -26 -1 -33 3 -33 18 0 10 -3 39 -6 65 -6 38 -4 46 10 46 8
0 22 -15 30 -34 19 -45 52 -66 103 -66 58 0 84 29 67 74 -3 8 -45 41 -92 73
-101 66 -108 74 -115 127 -10 76 32 131 111 146 38 8 102 3 138 -10z m189 6
c-11 -8 -24 -12 -29 -8 -5 3 -1 9 10 13 31 12 39 10 19 -5z m313 -3 c42 -14
56 -15 60 -5 2 6 12 12 23 12 17 0 19 -8 19 -70 0 -39 -4 -70 -10 -70 -5 0
-21 18 -36 39 -27 41 -76 71 -116 71 -12 0 -41 -9 -64 -19 -54 -25 -77 -73
-82 -171 -2 -64 1 -81 20 -115 25 -43 93 -85 138 -85 43 0 112 42 129 77 31
64 49 30 26 -49 l-16 -55 -122 -7 c-143 -8 -205 5 -264 57 -97 86 -95 247 5
341 65 61 187 81 290 49z m1100 -17 c16 -16 16 -18 -8 -37 -14 -12 -18 -17
-10 -13 9 4 12 3 7 -2 -5 -5 -14 -9 -20 -9 -16 -1 -90 -38 -99 -50 -4 -5 -4
-13 -2 -17 3 -4 -2 -5 -10 -2 -9 4 -16 18 -16 34 0 43 -16 77 -39 85 -12 3
-21 12 -21 18 0 9 29 12 100 11 82 0 104 -4 118 -18z m307 6 c0 -7 -11 -18
-25 -25 l-25 -13 -3 -197 -2 -197 -35 0 c-31 0 -45 12 -159 137 -117 129 -123
138 -105 151 11 7 16 18 13 24 -4 6 -2 8 4 5 12 -8 71 21 88 43 7 8 10 19 7
25 -4 5 -3 7 2 3 4 -4 17 -3 29 3 16 8 14 5 -6 -13 l-27 -23 72 -82 72 -83 3
98 c3 93 2 98 -22 117 -22 18 -24 22 -10 30 24 16 129 13 129 -3z m965 -37 c0
-63 -20 -76 -35 -23 -8 27 -17 34 -50 41 -22 4 -65 6 -95 5 l-55 -3 -3 -82 -3
-83 81 0 c76 0 81 1 92 25 6 14 17 25 25 25 10 0 13 -19 13 -75 0 -59 -3 -75
-14 -75 -19 0 -30 17 -14 22 16 6 -29 36 -57 38 -11 1 -44 2 -74 1 l-53 -1 3
-79 c2 -44 8 -83 12 -88 5 -4 47 -8 94 -8 77 1 87 3 104 24 11 13 19 31 19 40
0 9 8 17 18 17 16 0 18 -7 14 -56 -3 -30 -6 -56 -7 -58 -1 -2 -86 -3 -189 -3
-110 0 -186 -4 -186 -10 0 -5 -9 -9 -20 -9 -11 0 -20 5 -20 10 0 6 -9 10 -20
10 -13 0 -20 7 -20 20 0 13 7 20 20 20 11 0 24 9 28 19 4 11 6 92 4 181 -3
160 -3 161 -27 172 -14 6 -25 17 -25 25 0 10 43 13 220 13 l220 0 0 -55z
m-2740 25 c0 -5 -2 -10 -4 -10 -3 0 -8 5 -11 10 -3 6 -1 10 4 10 6 0 11 -4 11
-10z m-155 -60 c-3 -5 -14 -10 -23 -10 -15 0 -15 2 -2 10 20 13 33 13 25 0z
m1462 -84 c0 -8 -6 -12 -15 -8 -11 4 -13 1 -7 -8 5 -8 4 -11 -2 -7 -6 4 -19 0
-29 -8 -10 -8 -23 -14 -29 -15 -7 0 74 60 81 60 0 0 1 -6 1 -14z m73 -16 c-24
-15 -36 -11 -14 4 10 8 21 12 24 10 2 -3 -2 -9 -10 -14z m-1770 -4 c0 -2 -7
-7 -16 -10 -8 -3 -12 -2 -9 4 6 10 25 14 25 6z m1755 -212 c10 -8 25 -14 32
-14 7 0 13 -6 13 -13 0 -9 -23 -12 -80 -13 -56 0 -80 3 -80 12 0 6 9 14 20 17
27 7 40 46 40 121 0 36 5 67 13 75 10 10 13 -6 17 -79 4 -75 9 -94 25 -106z
m-1804 169 c13 -16 12 -17 -3 -4 -10 7 -18 15 -18 17 0 8 8 3 21 -13z m-27 -1
c2 -4 -4 -8 -14 -8 -10 0 -16 4 -14 8 3 4 9 8 14 8 5 0 11 -4 14 -8z m1736
-18 c0 -8 -19 -13 -24 -6 -3 5 1 9 9 9 8 0 15 -2 15 -3z m-205 -74 c-3 -5 -12
-10 -18 -10 -7 0 -6 4 3 10 19 12 23 12 15 0z m171 -31 c-3 -17 -6 -44 -6 -60
l0 -29 -76 0 -77 0 49 -37 c68 -51 118 -94 127 -109 15 -26 -11 -54 -49 -54
-29 0 -45 10 -90 52 -31 29 -71 74 -91 101 -32 43 -34 50 -21 64 11 10 39 16
88 17 62 2 75 5 91 25 11 13 19 32 19 42 0 13 7 19 21 19 19 0 21 -4 15 -31z
m1104 -4 c0 -8 -4 -15 -9 -15 -13 0 -22 16 -14 24 11 11 23 6 23 -9z m-1810
-52 c0 -5 -5 -15 -10 -23 -8 -12 -10 -11 -10 8 0 12 5 22 10 22 6 0 10 -3 10
-7z m370 -77 c0 -2 -8 -10 -17 -17 -16 -13 -17 -12 -4 4 13 16 21 21 21 13z
m1730 -61 c0 -8 -6 -15 -14 -15 -17 0 -28 14 -19 24 12 12 33 6 33 -9z m-1905
-5 c-3 -5 -16 -15 -28 -21 -19 -9 -19 -8 3 10 28 23 34 26 25 11z m1246 -3
c-1 -12 -15 -9 -19 4 -3 6 1 10 8 8 6 -3 11 -8 11 -12z m-1406 -27 c0 -7 -6
-15 -12 -17 -8 -3 -13 4 -13 17 0 13 5 20 13 18 6 -3 12 -11 12 -18z m1551 9
c10 -17 -13 -36 -27 -22 -12 12 -4 33 11 33 5 0 12 -5 16 -11z m410 -26 c-11
-11 -19 6 -11 24 8 17 8 17 12 0 3 -10 2 -21 -1 -24z m-364 -27 c1 -10 -3 -21
-9 -23 -9 -3 -13 6 -13 28 0 34 15 31 22 -5z m-1522 20 c0 -2 -8 -10 -17 -17
-16 -13 -17 -12 -4 4 13 16 21 21 21 13z m90 0 c0 -2 -8 -10 -17 -17 -16 -13
-17 -12 -4 4 13 16 21 21 21 13z m-631 -74 c0 -11 -2 -12 -6 -4 -2 6 -9 10
-14 6 -10 -6 -12 9 -3 19 10 10 24 -2 23 -21z m476 18 c-3 -5 -12 -10 -18 -10
-7 0 -6 4 3 10 19 12 23 12 15 0z m-680 -40 c-5 -8 -11 -8 -17 -2 -6 6 -7 16
-3 22 5 8 11 8 17 2 6 -6 7 -16 3 -22z m2260 -26 c-21 -70 -57 -116 -114 -146
-43 -24 -63 -28 -131 -28 -44 0 -80 4 -80 8 0 8 44 13 143 16 15 1 27 3 27 6
0 3 13 13 29 23 15 9 46 42 67 74 21 32 42 60 47 61 4 2 5 8 1 13 -7 12 5 31
16 24 5 -3 3 -26 -5 -51z m217 -9 c0 -5 -5 -11 -11 -13 -6 -2 -11 4 -11 13 0
9 5 15 11 13 6 -2 11 -8 11 -13z m-1902 1 c0 -2 -8 -10 -17 -17 -16 -13 -17
-12 -4 4 13 16 21 21 21 13z m-90 -21 c0 -8 -7 -15 -15 -15 -8 0 -15 7 -15 15
0 8 7 15 15 15 8 0 15 -7 15 -15z m1598 3 c-6 -18 -28 -21 -28 -4 0 9 7 16 16
16 9 0 14 -5 12 -12z m-1908 -24 c0 -16 -16 -19 -25 -4 -8 13 4 32 16 25 5 -4
9 -13 9 -21z m449 13 c-2 -1 -13 -9 -24 -17 -19 -14 -19 -14 -6 3 7 9 18 17
24 17 6 0 8 -1 6 -3z m-129 -30 c0 -2 -10 -12 -22 -23 l-23 -19 19 23 c18 21
26 27 26 19z m2026 -36 c-10 -16 -36 -13 -43 5 -8 22 18 37 36 20 7 -8 10 -19
7 -25z m-2271 -1 c0 -22 -29 -18 -33 3 -3 14 1 18 15 15 10 -2 18 -10 18 -18z
m541 9 c10 -17 -13 -36 -27 -22 -12 12 -4 33 11 33 5 0 12 -5 16 -11z m1019
-26 c44 -13 89 -28 100 -33 20 -9 20 -9 -1 -9 -25 -1 -151 41 -190 64 -16 9
-20 13 -9 10 11 -4 56 -18 100 -32z m803 25 c-6 -18 -28 -21 -28 -4 0 9 7 16
16 16 9 0 14 -5 12 -12z m-2088 -13 c0 -2 -10 -9 -22 -15 -22 -11 -22 -10 -4
4 21 17 26 19 26 11z m1030 -10 c0 -8 -4 -15 -10 -15 -5 0 -10 7 -10 15 0 8 5
15 10 15 6 0 10 -7 10 -15z m-1080 -29 c0 -2 -8 -10 -17 -17 -16 -13 -17 -12
-4 4 13 16 21 21 21 13z m-99 -79 c-10 -9 -11 -8 -5 6 3 10 9 15 12 12 3 -3 0
-11 -7 -18z m219 -13 c0 -8 -5 -12 -10 -9 -6 4 -8 11 -5 16 9 14 15 11 15 -7z
m212 -39 c0 -5 -5 -11 -11 -13 -6 -2 -11 4 -11 13 0 9 5 15 11 13 6 -2 11 -8
11 -13z m-493 2 c-2 -1 -15 -11 -29 -22 l-25 -20 19 23 c11 12 24 22 29 22 6
0 8 -1 6 -3z m-199 -150 c0 -7 -4 -6 -10 3 -6 10 -10 11 -10 3 0 -7 -5 -13
-11 -13 -8 0 -8 5 1 15 13 16 30 11 30 -8z m2030 8 c0 -8 -7 -15 -15 -15 -8 0
-15 7 -15 15 0 8 7 15 15 15 8 0 15 -7 15 -15z m-1483 -39 c-8 -19 -37 -21
-37 -3 0 7 5 18 12 25 15 15 33 -1 25 -22z"/>
<path d="M1577 2733 c-15 -4 -13 -10 15 -49 50 -70 58 -73 58 -25 0 28 -6 47
-20 61 -20 20 -22 21 -53 13z"/>
<path d="M1530 2544 c0 -168 5 -185 59 -186 54 -2 68 30 61 136 -1 29 -16 58
-53 110 -28 39 -54 75 -59 81 -4 5 -8 -59 -8 -141z"/>
<path d="M1470 2490 c-8 -5 -11 -12 -7 -16 4 -4 13 -2 19 4 15 15 7 24 -12 12z"/>
<path d="M1652 3340 c-6 -14 -19 -49 -31 -78 -12 -29 -21 -55 -21 -57 0 -3 27
-5 60 -5 33 0 60 3 60 8 0 4 -13 41 -29 82 -27 70 -30 73 -39 50z"/>
<path d="M2648 3373 c7 -3 16 -2 19 1 4 3 -2 6 -13 5 -11 0 -14 -3 -6 -6z"/>
<path d="M2812 2687 c-67 -81 -50 -258 30 -306 35 -22 86 -36 95 -27 9 9 -25
129 -68 240 -21 54 -40 101 -42 103 -2 2 -9 -3 -15 -10z"/>
<path d="M2802 2358 c18 -27 23 -29 26 -15 4 21 -15 47 -35 47 -11 0 -9 -8 9
-32z"/>
<path d="M3235 2550 c-3 -5 -2 -10 4 -10 5 0 13 5 16 10 3 6 2 10 -4 10 -5 0
-13 -4 -16 -10z"/>
<path d="M180 2454 c-25 -14 -47 -30 -48 -35 -2 -5 -8 -7 -13 -3 -5 3 -9 0 -9
-6 0 -6 -4 -8 -10 -5 -16 10 -54 -15 -42 -27 7 -7 29 0 69 23 32 18 61 37 64
42 3 5 9 8 13 7 16 -5 47 10 41 19 -9 15 -14 14 -65 -15z"/>
<path d="M22 2371 c-11 -7 -10 -10 3 -15 20 -7 38 1 30 15 -7 11 -16 11 -33 0z"/>
</g>
</svg>
