<svg width="1451" height="586" viewBox="0 0 1451 586" fill="none" xmlns="http://www.w3.org/2000/svg">
<path d="M388 200C388 201.657 386.657 203 385 203L261.475 203C260.661 203 260 202.339 260 201.525V201.525C260 185.771 272.771 173 288.525 173H385C386.657 173 388 174.343 388 176V200Z" fill="white"/>
<path d="M793 199C793 200.657 791.657 202 790 202H681C679.343 202 678 200.657 678 199V173C678 171.343 679.343 170 681 170H790C791.657 170 793 171.343 793 173V199Z" fill="white"/>
<path d="M257 283H387C388.657 283 390 284.343 390 286V310C390 311.657 388.657 313 387 313H260C258.343 313 257 311.657 257 310V283Z" fill="white"/>
<path d="M686 235C686 233.343 687.343 232 689 232H773C774.657 232 776 233.343 776 235V261C776 262.657 774.657 264 773 264H689C687.343 264 686 262.657 686 261V235Z" fill="white"/>
<path d="M858 313C856.343 313 855 311.657 855 310V176C855 174.343 856.343 173 858 173H884C885.657 173 887 174.343 887 176V310C887 311.657 885.657 313 884 313H858Z" fill="white"/>
<path d="M458 313C456.343 313 455 311.657 455 310V176C455 174.343 456.343 173 458 173H484C485.657 173 487 174.343 487 176V310C487 311.657 485.657 313 484 313H458Z" fill="white"/>
<path d="M458 313C456.343 313 455 311.657 455 310V176C455 174.343 456.343 173 458 173H484C485.657 173 487 174.343 487 176V310C487 311.657 485.657 313 484 313H458Z" fill="white"/>
<path d="M1076 313C1074.34 313 1073 311.657 1073 310V176C1073 174.343 1074.34 173 1076 173H1102C1103.66 173 1105 174.343 1105 176V310C1105 311.657 1103.66 313 1102 313H1076Z" fill="white"/>
<path d="M963.68 295.379C963.68 298.203 960.134 299.463 958.352 297.272L901.479 227.327C901.044 226.792 900.807 226.124 900.807 225.434L900.807 192.275C900.807 189.988 903.586 188.86 905.18 190.5V190.5L963.008 261.673C963.443 262.208 963.68 262.876 963.68 263.565L963.68 295.379Z" fill="#D36323"/>
<path d="M562.68 295.379C562.68 298.203 559.134 299.463 557.352 297.272L500.479 227.327C500.044 226.792 499.807 226.124 499.807 225.434L499.807 192.275C499.807 189.988 502.586 188.86 504.18 190.5V190.5L562.008 261.673C562.443 262.208 562.68 262.876 562.68 263.565L562.68 295.379Z" fill="#D36323"/>
<path d="M1181.68 295.379C1181.68 298.203 1178.13 299.463 1176.35 297.272L1119.48 227.327C1119.04 226.792 1118.81 226.124 1118.81 225.434L1118.81 192.275C1118.81 189.988 1121.59 188.86 1123.18 190.5V190.5L1181.01 261.673C1181.44 262.208 1181.68 262.876 1181.68 263.565L1181.68 295.379Z" fill="#D36323"/>
<path d="M979 313C977.343 313 976 311.657 976 310V176C976 174.343 977.343 173 979 173H1005C1006.66 173 1008 174.343 1008 176V310C1008 311.657 1006.66 313 1005 313H979Z" fill="white"/>
<path d="M579 313C577.343 313 576 311.657 576 310V176C576 174.343 577.343 173 579 173H605C606.657 173 608 174.343 608 176V310C608 311.657 606.657 313 605 313H579Z" fill="white"/>
<path d="M673 287C673 285.343 674.343 284 676 284H751C752.657 284 754 285.343 754 287V310C754 311.657 752.657 313 751 313H676C674.343 313 673 311.657 673 310V298.5V287Z" fill="#D36323"/>
<path d="M1197 313C1195.34 313 1194 311.657 1194 310V176C1194 174.343 1195.34 173 1197 173H1223C1224.66 173 1226 174.343 1226 176V310C1226 311.657 1224.66 313 1223 313H1197Z" fill="white"/>
<path d="M260 231C260 229.343 261.343 228 263 228H308.466H353C354.657 228 356 229.343 356 231V255C356 256.657 354.657 258 353 258H310.33H263C261.343 258 260 256.657 260 255V231Z" fill="#D36323"/>
<path d="M676 264C674.343 264 673 262.657 673 261V173C673 171.343 674.343 170 676 170H702C703.657 170 705 171.343 705 173V263.495V263.495C705 263.774 704.774 264 704.495 264H676Z" fill="white"/>
<path d="M764 313C762.343 313 761 311.657 761 310V232.46V232.46C761 232.206 761.206 232 761.46 232H790C791.657 232 793 233.343 793 235V310C793 311.657 791.657 313 790 313H764Z" fill="white"/>
<path d="M51 355.898H68.5256V363.304H63.4594V388.314H56.0177V363.304H51V355.898Z" fill="white"/>
<path d="M75.5892 355.898H82.934V367.918H89.4546V355.898H96.7993V388.314H89.4546V374.838H82.934V388.314H75.5892V355.898Z" fill="white"/>
<path d="M106.238 355.898H121.098V362.794H113.583V368.767H120.104V375.493H113.583V381.394H121.146V388.314H106.238V355.898Z" fill="white"/>
<path d="M144.072 355.898H151.49L160.822 374.595L160.556 371.098V355.898H167.901V388.314H160.362L151.223 369.909L151.417 373.939V388.314H144.072V355.898Z" fill="white"/>
<path d="M199.98 388.314H192.344L191.108 382.899H183.351L182.066 388.314H174.576L183.157 355.898H191.399L199.98 388.314ZM189.702 377.072C188.603 372.248 187.779 367.659 187.23 363.304H187.133C186.551 367.788 185.735 372.377 184.684 377.072H189.702Z" fill="white"/>
<path d="M202.317 355.898H219.842V363.304H214.776V388.314H207.334V363.304H202.317V355.898Z" fill="white"/>
<path d="M227.173 355.898H234.517V388.314H227.173V355.898Z" fill="white"/>
<path d="M254.719 389.115C250.808 389.115 247.827 387.618 245.774 384.623C243.722 381.612 242.696 377.274 242.696 371.608C242.696 366.38 243.722 362.309 245.774 359.395C247.843 356.465 250.719 355 254.404 355C258.331 355 261.329 356.465 263.397 359.395C265.482 362.325 266.524 366.509 266.524 371.948C266.524 377.387 265.498 381.612 263.446 384.623C261.409 387.618 258.501 389.115 254.719 389.115ZM254.452 362.357C251.802 362.357 250.477 365.473 250.477 371.705C250.477 375.72 250.808 378.399 251.471 379.742C252.15 381.086 253.127 381.758 254.404 381.758C255.778 381.758 256.828 381.086 257.555 379.742C258.299 378.399 258.67 375.768 258.67 371.851C258.67 365.522 257.264 362.357 254.452 362.357Z" fill="white"/>
<path d="M274.484 355.898H281.902L291.234 374.595L290.968 371.098V355.898H298.313V388.314H290.774L281.635 369.909L281.829 373.939V388.314H274.484V355.898Z" fill="white"/>
<path d="M330.392 388.314H322.756L321.52 382.899H313.763L312.479 388.314H304.988L313.569 355.898H321.811L330.392 388.314ZM320.114 377.072C319.015 372.248 318.191 367.659 317.642 363.304H317.545C316.963 367.788 316.147 372.377 315.096 377.072H320.114Z" fill="white"/>
<path d="M336.607 355.898H343.952V380.811H349.77V388.314H336.607V355.898Z" fill="white"/>
<path d="M371.872 387.707V380.155C374.199 381.515 376.154 382.195 377.738 382.195C378.659 382.195 379.386 381.944 379.919 381.442C380.453 380.924 380.719 380.244 380.719 379.403C380.719 378.755 380.501 378.148 380.065 377.581C379.645 377.015 378.909 376.327 377.859 375.518C375.322 373.575 373.48 371.77 372.332 370.103C371.201 368.419 370.635 366.55 370.635 364.494C370.635 361.693 371.516 359.411 373.278 357.647C375.039 355.882 377.318 355 380.113 355C382.182 355 384.234 355.445 386.27 356.335V363.596C384.089 362.398 382.319 361.799 380.962 361.799C380.057 361.799 379.338 362.025 378.804 362.479C378.287 362.916 378.029 363.523 378.029 364.3C378.029 365.659 379.249 367.189 381.689 368.889C383.143 369.892 384.614 371.309 386.101 373.138C387.604 374.951 388.355 377.055 388.355 379.451C388.355 382.252 387.377 384.574 385.422 386.42C383.467 388.249 380.986 389.164 377.98 389.164C375.928 389.164 373.892 388.678 371.872 387.707Z" fill="white"/>
<path d="M413.114 380.665V388.362C411.563 388.864 410.173 389.115 408.945 389.115C404.695 389.115 401.244 387.521 398.594 384.332C395.96 381.126 394.643 376.918 394.643 371.705C394.643 366.865 395.976 362.875 398.643 359.735C401.309 356.578 404.678 355 408.751 355C410.334 355 411.789 355.21 413.114 355.631V363.353C411.708 362.883 410.383 362.649 409.139 362.649C407.232 362.649 405.648 363.523 404.387 365.271C403.127 367.019 402.497 369.245 402.497 371.948C402.497 374.862 403.127 377.169 404.387 378.868C405.664 380.552 407.361 381.394 409.478 381.394C410.512 381.394 411.724 381.151 413.114 380.665Z" fill="white"/>
<path d="M420.371 355.898H427.716V367.918H434.237V355.898H441.582V388.314H434.237V374.838H427.716V388.314H420.371V355.898Z" fill="white"/>
<path d="M461.565 389.115C457.654 389.115 454.673 387.618 452.621 384.623C450.568 381.612 449.542 377.274 449.542 371.608C449.542 366.38 450.568 362.309 452.621 359.395C454.689 356.465 457.566 355 461.25 355C465.177 355 468.175 356.465 470.243 359.395C472.328 362.325 473.37 366.509 473.37 371.948C473.37 377.387 472.344 381.612 470.292 384.623C468.255 387.618 465.347 389.115 461.565 389.115ZM461.298 362.357C458.648 362.357 457.323 365.473 457.323 371.705C457.323 375.72 457.654 378.399 458.317 379.742C458.996 381.086 459.973 381.758 461.25 381.758C462.624 381.758 463.674 381.086 464.401 379.742C465.145 378.399 465.516 375.768 465.516 371.851C465.516 365.522 464.11 362.357 461.298 362.357Z" fill="white"/>
<path d="M491.875 389.115C487.964 389.115 484.983 387.618 482.93 384.623C480.878 381.612 479.852 377.274 479.852 371.608C479.852 366.38 480.878 362.309 482.93 359.395C484.999 356.465 487.875 355 491.56 355C495.487 355 498.484 356.465 500.553 359.395C502.638 362.325 503.68 366.509 503.68 371.948C503.68 377.387 502.654 381.612 500.601 384.623C498.565 387.618 495.656 389.115 491.875 389.115ZM491.608 362.357C488.958 362.357 487.633 365.473 487.633 371.705C487.633 375.72 487.964 378.399 488.627 379.742C489.306 381.086 490.283 381.758 491.56 381.758C492.933 381.758 493.984 381.086 494.711 379.742C495.454 378.399 495.826 375.768 495.826 371.851C495.826 365.522 494.42 362.357 491.608 362.357Z" fill="white"/>
<path d="M511.64 355.898H518.985V380.811H524.803V388.314H511.64V355.898Z" fill="white"/>
<path d="M557.449 389.115C553.539 389.115 550.557 387.618 548.505 384.623C546.453 381.612 545.426 377.274 545.426 371.608C545.426 366.38 546.453 362.309 548.505 359.395C550.573 356.465 553.45 355 557.134 355C561.061 355 564.059 356.465 566.127 359.395C568.212 362.325 569.254 366.509 569.254 371.948C569.254 377.387 568.228 381.612 566.176 384.623C564.14 387.618 561.231 389.115 557.449 389.115ZM557.183 362.357C554.533 362.357 553.207 365.473 553.207 371.705C553.207 375.72 553.539 378.399 554.201 379.742C554.88 381.086 555.858 381.758 557.134 381.758C558.508 381.758 559.558 381.086 560.286 379.742C561.029 378.399 561.401 375.768 561.401 371.851C561.401 365.522 559.995 362.357 557.183 362.357Z" fill="white"/>
<path d="M577.215 355.898H592.074V362.843H584.56V368.767H591.177V375.493H584.56V388.314H577.215V355.898Z" fill="white"/>
<path d="M614.031 355.898H621.448L630.781 374.595L630.514 371.098V355.898H637.859V388.314H630.32L621.182 369.909L621.376 373.939V388.314H614.031V355.898Z" fill="white"/>
<path d="M669.938 388.314H662.303L661.066 382.899H653.31L652.025 388.314H644.535L653.116 355.898H661.357L669.938 388.314ZM659.66 377.072C658.562 372.248 657.737 367.659 657.188 363.304H657.091C656.509 367.788 655.693 372.377 654.643 377.072H659.66Z" fill="white"/>
<path d="M676.153 355.898H683.571L692.903 374.595L692.637 371.098V355.898H699.982V388.314H692.443L683.304 369.909L683.498 373.939V388.314H676.153V355.898Z" fill="white"/>
<path d="M719.965 389.115C716.054 389.115 713.073 387.618 711.021 384.623C708.968 381.612 707.942 377.274 707.942 371.608C707.942 366.38 708.968 362.309 711.021 359.395C713.089 356.465 715.965 355 719.65 355C723.577 355 726.575 356.465 728.643 359.395C730.728 362.325 731.77 366.509 731.77 371.948C731.77 377.387 730.744 381.612 728.692 384.623C726.655 387.618 723.747 389.115 719.965 389.115ZM719.699 362.357C717.048 362.357 715.723 365.473 715.723 371.705C715.723 375.72 716.054 378.399 716.717 379.742C717.396 381.086 718.373 381.758 719.65 381.758C721.024 381.758 722.074 381.086 722.801 379.742C723.545 378.399 723.916 375.768 723.916 371.851C723.916 365.522 722.51 362.357 719.699 362.357Z" fill="white"/>
<path d="M739.731 387.707V380.155C742.058 381.515 744.013 382.195 745.597 382.195C746.518 382.195 747.245 381.944 747.778 381.442C748.312 380.924 748.578 380.244 748.578 379.403C748.578 378.755 748.36 378.148 747.924 377.581C747.504 377.015 746.768 376.327 745.718 375.518C743.181 373.575 741.338 371.77 740.191 370.103C739.06 368.419 738.494 366.55 738.494 364.494C738.494 361.693 739.375 359.411 741.136 357.647C742.898 355.882 745.176 355 747.972 355C750.041 355 752.093 355.445 754.129 356.335V363.596C751.948 362.398 750.178 361.799 748.821 361.799C747.916 361.799 747.197 362.025 746.663 362.479C746.146 362.916 745.888 363.523 745.888 364.3C745.888 365.659 747.108 367.189 749.548 368.889C751.002 369.892 752.473 371.309 753.959 373.138C755.462 374.951 756.214 377.055 756.214 379.451C756.214 382.252 755.236 384.574 753.281 386.42C751.325 388.249 748.845 389.164 745.839 389.164C743.787 389.164 741.751 388.678 739.731 387.707Z" fill="white"/>
<path d="M780.973 380.665V388.362C779.421 388.864 778.032 389.115 776.803 389.115C772.553 389.115 769.103 387.521 766.453 384.332C763.819 381.126 762.502 376.918 762.502 371.705C762.502 366.865 763.835 362.875 766.501 359.735C769.168 356.578 772.537 355 776.61 355C778.193 355 779.648 355.21 780.973 355.631V363.353C779.567 362.883 778.242 362.649 776.997 362.649C775.09 362.649 773.507 363.523 772.246 365.271C770.986 367.019 770.356 369.245 770.356 371.948C770.356 374.862 770.986 377.169 772.246 378.868C773.523 380.552 775.22 381.394 777.337 381.394C778.371 381.394 779.583 381.151 780.973 380.665Z" fill="white"/>
<path d="M788.497 355.898H795.842V388.314H788.497V355.898Z" fill="white"/>
<path d="M805.499 355.898H820.358V362.794H812.844V368.767H819.364V375.493H812.844V381.394H820.407V388.314H805.499V355.898Z" fill="white"/>
<path d="M828.682 355.898H836.1L845.432 374.595L845.165 371.098V355.898H852.51V388.314H844.972L835.833 369.909L836.027 373.939V388.314H828.682V355.898Z" fill="white"/>
<path d="M878.942 380.665V388.362C877.39 388.864 876.001 389.115 874.772 389.115C870.522 389.115 867.072 387.521 864.422 384.332C861.788 381.126 860.471 376.918 860.471 371.705C860.471 366.865 861.804 362.875 864.47 359.735C867.137 356.578 870.506 355 874.579 355C876.162 355 877.617 355.21 878.942 355.631V363.353C877.536 362.883 876.211 362.649 874.966 362.649C873.059 362.649 871.476 363.523 870.215 365.271C868.955 367.019 868.325 369.245 868.325 371.948C868.325 374.862 868.955 377.169 870.215 378.868C871.492 380.552 873.189 381.394 875.306 381.394C876.34 381.394 877.552 381.151 878.942 380.665Z" fill="white"/>
<path d="M886.199 355.898H901.058V362.794H893.544V368.767H900.065V375.493H893.544V381.394H901.107V388.314H886.199V355.898Z" fill="white"/>
<path d="M946.674 388.314H939.038L937.802 382.899H930.045L928.76 388.314H921.27L929.851 355.898H938.093L946.674 388.314ZM936.396 377.072C935.297 372.248 934.473 367.659 933.923 363.304H933.826C933.245 367.788 932.428 372.377 931.378 377.072H936.396Z" fill="white"/>
<path d="M952.889 355.898H960.306L969.639 374.595L969.372 371.098V355.898H976.717V388.314H969.178L960.04 369.909L960.234 373.939V388.314H952.889V355.898Z" fill="white"/>
<path d="M986.156 355.898H993.016C997.767 355.898 1001.38 357.258 1003.85 359.978C1006.32 362.681 1007.56 366.639 1007.56 371.851C1007.56 375.801 1006.95 378.99 1005.72 381.418C1004.51 383.846 1002.8 385.602 1000.6 386.687C998.421 387.771 996.005 388.314 993.355 388.314H986.156V355.898ZM993.501 362.794V381.394C995.731 381.199 997.306 380.414 998.228 379.038C999.149 377.646 999.609 375.364 999.609 372.191C999.609 370.313 999.448 368.727 999.124 367.432C998.801 366.121 998.316 365.117 997.67 364.421C997.04 363.709 996.418 363.272 995.803 363.11C995.206 362.948 994.438 362.843 993.501 362.794Z" fill="white"/>
<path d="M1029.66 355.898H1037.08L1046.41 374.595L1046.15 371.098V355.898H1053.49V388.314H1045.95L1036.81 369.909L1037.01 373.939V388.314H1029.66V355.898Z" fill="white"/>
<path d="M1085.57 388.314H1077.93L1076.7 382.899H1068.94L1067.66 388.314H1060.17L1068.75 355.898H1076.99L1085.57 388.314ZM1075.29 377.072C1074.19 372.248 1073.37 367.659 1072.82 363.304H1072.72C1072.14 367.788 1071.32 372.377 1070.27 377.072H1075.29Z" fill="white"/>
<path d="M1091.78 355.898H1099.2L1108.53 374.595L1108.27 371.098V355.898H1115.61V388.314H1108.07L1098.94 369.909L1099.13 373.939V388.314H1091.78V355.898Z" fill="white"/>
<path d="M1135.6 389.115C1131.69 389.115 1128.7 387.618 1126.65 384.623C1124.6 381.612 1123.57 377.274 1123.57 371.608C1123.57 366.38 1124.6 362.309 1126.65 359.395C1128.72 356.465 1131.6 355 1135.28 355C1139.21 355 1142.21 356.465 1144.27 359.395C1146.36 362.325 1147.4 366.509 1147.4 371.948C1147.4 377.387 1146.38 381.612 1144.32 384.623C1142.29 387.618 1139.38 389.115 1135.6 389.115ZM1135.33 362.357C1132.68 362.357 1131.35 365.473 1131.35 371.705C1131.35 375.72 1131.69 378.399 1132.35 379.742C1133.03 381.086 1134 381.758 1135.28 381.758C1136.65 381.758 1137.71 381.086 1138.43 379.742C1139.18 378.399 1139.55 375.768 1139.55 371.851C1139.55 365.522 1138.14 362.357 1135.33 362.357Z" fill="white"/>
<path d="M1152.5 355.898H1170.03V363.304H1164.96V388.314H1157.52V363.304H1152.5V355.898Z" fill="white"/>
<path d="M1177.09 355.898H1191.95V362.794H1184.44V368.767H1190.96V375.493H1184.44V381.394H1192V388.314H1177.09V355.898Z" fill="white"/>
<path d="M1217.27 380.665V388.362C1215.72 388.864 1214.33 389.115 1213.1 389.115C1208.85 389.115 1205.4 387.521 1202.75 384.332C1200.11 381.126 1198.8 376.918 1198.8 371.705C1198.8 366.865 1200.13 362.875 1202.79 359.735C1205.46 356.578 1208.83 355 1212.9 355C1214.49 355 1215.94 355.21 1217.27 355.631V363.353C1215.86 362.883 1214.54 362.649 1213.29 362.649C1211.38 362.649 1209.8 363.523 1208.54 365.271C1207.28 367.019 1206.65 369.245 1206.65 371.948C1206.65 374.862 1207.28 377.169 1208.54 378.868C1209.82 380.552 1211.51 381.394 1213.63 381.394C1214.66 381.394 1215.88 381.151 1217.27 380.665Z" fill="white"/>
<path d="M1224.52 355.898H1231.87V367.918H1238.39V355.898H1245.73V388.314H1238.39V374.838H1231.87V388.314H1224.52V355.898Z" fill="white"/>
<path d="M1255.17 355.898H1262.59L1271.92 374.595L1271.66 371.098V355.898H1279V388.314H1271.46L1262.32 369.909L1262.52 373.939V388.314H1255.17V355.898Z" fill="white"/>
<path d="M1298.98 389.115C1295.07 389.115 1292.09 387.618 1290.04 384.623C1287.99 381.612 1286.96 377.274 1286.96 371.608C1286.96 366.38 1287.99 362.309 1290.04 359.395C1292.11 356.465 1294.99 355 1298.67 355C1302.6 355 1305.59 356.465 1307.66 359.395C1309.75 362.325 1310.79 366.509 1310.79 371.948C1310.79 377.387 1309.76 381.612 1307.71 384.623C1305.68 387.618 1302.77 389.115 1298.98 389.115ZM1298.72 362.357C1296.07 362.357 1294.74 365.473 1294.74 371.705C1294.74 375.72 1295.07 378.399 1295.74 379.742C1296.42 381.086 1297.39 381.758 1298.67 381.758C1300.04 381.758 1301.09 381.086 1301.82 379.742C1302.56 378.399 1302.94 375.768 1302.94 371.851C1302.94 365.522 1301.53 362.357 1298.72 362.357Z" fill="white"/>
<path d="M1318.75 355.898H1326.09V380.811H1331.91V388.314H1318.75V355.898Z" fill="white"/>
<path d="M1349.47 389.115C1345.56 389.115 1342.58 387.618 1340.53 384.623C1338.48 381.612 1337.45 377.274 1337.45 371.608C1337.45 366.38 1338.48 362.309 1340.53 359.395C1342.6 356.465 1345.47 355 1349.16 355C1353.08 355 1356.08 356.465 1358.15 359.395C1360.23 362.325 1361.28 366.509 1361.28 371.948C1361.28 377.387 1360.25 381.612 1358.2 384.623C1356.16 387.618 1353.25 389.115 1349.47 389.115ZM1349.21 362.357C1346.56 362.357 1345.23 365.473 1345.23 371.705C1345.23 375.72 1345.56 378.399 1346.22 379.742C1346.9 381.086 1347.88 381.758 1349.16 381.758C1350.53 381.758 1351.58 381.086 1352.31 379.742C1353.05 378.399 1353.42 375.768 1353.42 371.851C1353.42 365.522 1352.02 362.357 1349.21 362.357Z" fill="white"/>
<path d="M1391.49 370.151V375.59C1391.49 379.799 1390.47 383.109 1388.44 385.521C1386.42 387.917 1383.64 389.115 1380.12 389.115C1376.18 389.115 1373.13 387.634 1370.98 384.672C1368.83 381.693 1367.76 377.452 1367.76 371.948C1367.76 366.396 1368.83 362.187 1370.96 359.322C1373.11 356.441 1376.24 355 1380.36 355C1384.99 355 1388.33 357.469 1390.4 362.406L1383.39 365.295C1382.81 364.259 1382.27 363.506 1381.77 363.037C1381.27 362.551 1380.58 362.309 1379.71 362.309C1378.22 362.309 1377.16 363.094 1376.53 364.664C1375.92 366.218 1375.61 368.743 1375.61 372.24C1375.61 375.493 1375.96 377.889 1376.66 379.427C1377.37 380.948 1378.49 381.709 1380.02 381.709C1382.48 381.709 1383.75 379.953 1383.83 376.44H1380.41V370.151H1391.49Z" fill="white"/>
<path d="M1396.32 355.898H1404.57C1406.39 360.56 1407.72 364.154 1408.54 366.679H1408.64C1409.46 364.089 1410.77 360.496 1412.56 355.898H1421L1412.32 373.648V388.314H1404.88V373.648L1396.32 355.898Z" fill="white"/>
<path d="M192.381 454.949H200.224V461.662H191.388C188.111 461.662 185.431 459.027 185.431 455.695V429.588H192.381V454.949Z" fill="white"/>
<path d="M202.052 466.883C202.052 464.994 203.591 463.403 205.527 463.403C207.414 463.403 209.003 464.994 209.003 466.883C209.003 468.823 207.414 470.364 205.527 470.364C203.591 470.364 202.052 468.823 202.052 466.883ZM211.088 466.883C211.088 464.994 212.627 463.403 214.563 463.403C216.449 463.403 218.038 464.994 218.038 466.883C218.038 468.823 216.449 470.364 214.563 470.364C212.627 470.364 211.088 468.823 211.088 466.883ZM213.57 454.949H220.917V461.662H198.23V454.949H206.62V438.887H213.57V454.949Z" fill="white"/>
<path d="M249.97 454.949H253.197V461.662H218.943V454.949H242.523L239.594 447.937C238.8 446.048 236.963 444.755 234.878 444.755C234.134 444.755 233.488 444.904 232.545 445.302L227.183 448.086L224.056 441.92L229.417 439.185C231.602 438.191 233.19 437.892 234.878 437.892C239.843 437.892 244.112 440.876 245.949 445.252L249.97 454.949ZM235.722 463.403C237.609 463.403 239.197 464.944 239.197 466.883C239.197 468.823 237.609 470.364 235.722 470.364C233.786 470.364 232.247 468.823 232.247 466.883C232.247 464.944 233.786 463.403 235.722 463.403Z" fill="white"/>
<path d="M264.719 454.402H272.811V446.197H268.79C266.556 446.197 264.719 448.037 264.719 450.274V454.402ZM279.861 454.949H286.91V461.662H279.861C279.712 464.845 278.57 467.48 276.485 469.569C274.251 471.757 271.52 472.901 268.194 473H263.925V466.983H267.996C269.336 466.983 270.478 466.486 271.421 465.541C272.364 464.596 272.811 463.502 272.811 462.159V461.016H262.882C261.492 461.016 260.301 460.518 259.358 459.524C258.365 458.579 257.868 457.385 257.868 456.043V450.424C257.868 447.291 258.961 444.655 261.194 442.417C263.379 440.229 266.01 439.135 269.138 439.135H279.861V454.949Z" fill="white"/>
<path d="M300.156 454.949H307.503V461.662H284.816V454.949H293.205V429.637H300.156V454.949Z" fill="white"/>
<path d="M313.372 432.671C313.372 430.781 314.911 429.19 316.847 429.19C318.734 429.19 320.322 430.781 320.322 432.671C320.322 434.61 318.734 436.152 316.847 436.152C314.911 436.152 313.372 434.61 313.372 432.671ZM320.372 454.949H327.719V461.662H305.032V454.949H313.422V438.887H320.372V454.949Z" fill="white"/>
<path d="M359.949 454.949H366.254V461.662H325.993V454.949H353.247C353.247 451.12 350.169 448.037 346.347 448.037H332.248V441.423L348.779 426.355L353.396 431.428L342.475 441.323H346.347C353.893 441.323 359.949 447.39 359.949 454.949Z" fill="white"/>
<path d="M374.066 438.887H381.016V455.645C381.016 458.977 378.336 461.662 375.01 461.662H364.286V454.949H374.066V438.887ZM374.066 432.77C374.066 430.881 375.605 429.289 377.541 429.289C379.428 429.289 381.016 430.881 381.016 432.77C381.016 434.71 379.428 436.251 377.541 436.251C375.605 436.251 374.066 434.71 374.066 432.77ZM368.606 436.251C366.719 436.251 365.13 434.71 365.13 432.77C365.13 430.881 366.719 429.289 368.606 429.289C370.542 429.289 372.081 430.881 372.081 432.77C372.081 434.71 370.542 436.251 368.606 436.251Z" fill="white"/>
<path d="M402.84 454.402H410.932V446.197H406.91C404.676 446.197 402.84 448.037 402.84 450.274V454.402ZM417.981 454.949H425.03V461.662H417.981C417.832 464.845 416.69 467.48 414.605 469.569C412.371 471.757 409.641 472.901 406.315 473H402.045V466.983H406.116C407.456 466.983 408.598 466.486 409.541 465.541C410.485 464.596 410.932 463.502 410.932 462.159V461.016H401.003C399.613 461.016 398.421 460.518 397.478 459.524C396.485 458.579 395.989 457.385 395.989 456.043V450.424C395.989 447.291 397.081 444.655 399.315 442.417C401.499 440.229 404.13 439.135 407.258 439.135H417.981V454.949Z" fill="white"/>
<path d="M431.673 438.887H438.623V455.645C438.623 458.977 435.943 461.662 432.617 461.662H423.432V454.949H431.673V438.887ZM431.673 432.77C431.673 430.881 433.212 429.289 435.148 429.289C437.035 429.289 438.623 430.881 438.623 432.77C438.623 434.71 437.035 436.251 435.148 436.251C433.212 436.251 431.673 434.71 431.673 432.77Z" fill="white"/>
<path d="M450.054 454.949H457.897V461.662H449.061C445.784 461.662 443.103 459.027 443.103 455.695V429.588H450.054V454.949Z" fill="white"/>
<path d="M464.243 432.671C464.243 430.781 465.782 429.19 467.718 429.19C469.604 429.19 471.193 430.781 471.193 432.671C471.193 434.61 469.604 436.152 467.718 436.152C465.782 436.152 464.243 434.61 464.243 432.671ZM471.243 454.949H478.59V461.662H455.903V454.949H464.292V438.887H471.243V454.949Z" fill="white"/>
<path d="M484.509 429.588H491.459V455.645C491.459 458.977 488.778 461.662 485.452 461.662H476.268V454.949H484.509V429.588Z" fill="white"/>
<path d="M495.961 429.588H502.911V461.662H495.961V429.588Z" fill="white"/>
<path d="M529.497 439.135V461.314C529.497 467.779 524.284 473 517.831 473H513.561V466.983H517.632C520.263 466.983 522.447 464.795 522.447 462.159V461.016H512.519C509.739 461.016 507.505 458.778 507.505 456.043V450.424C507.505 444.208 512.568 439.135 518.774 439.135H529.497ZM514.356 454.402H522.447V446.197H518.426C516.192 446.197 514.356 448.037 514.356 450.274V454.402Z" fill="white"/>
<path d="M553.032 454.402H561.124V446.197H557.102C554.868 446.197 553.032 448.037 553.032 450.274V454.402ZM568.173 454.949H575.222V461.662H568.173C568.024 464.845 566.882 467.48 564.797 469.569C562.563 471.757 559.833 472.901 556.507 473H552.237V466.983H556.308C557.648 466.983 558.79 466.486 559.733 465.541C560.677 464.596 561.124 463.502 561.124 462.159V461.016H551.195C549.805 461.016 548.613 460.518 547.67 459.524C546.677 458.579 546.181 457.385 546.181 456.043V450.424C546.181 447.291 547.273 444.655 549.507 442.417C551.691 440.229 554.322 439.135 557.45 439.135H568.173V454.949Z" fill="white"/>
<path d="M581.865 438.887H588.815V455.645C588.815 458.977 586.135 461.662 582.809 461.662H573.624V454.949H581.865V438.887ZM581.865 432.77C581.865 430.881 583.404 429.289 585.34 429.289C587.227 429.289 588.815 430.881 588.815 432.77C588.815 434.71 587.227 436.251 585.34 436.251C583.404 436.251 581.865 434.71 581.865 432.77Z" fill="white"/>
<path d="M600.246 454.949H608.089V461.662H599.253C595.976 461.662 593.295 459.027 593.295 455.695V429.588H600.246V454.949Z" fill="white"/>
<path d="M614.435 432.671C614.435 430.781 615.974 429.19 617.91 429.19C619.796 429.19 621.385 430.781 621.385 432.671C621.385 434.61 619.796 436.152 617.91 436.152C615.974 436.152 614.435 434.61 614.435 432.671ZM621.435 454.949H628.782V461.662H606.095V454.949H614.484V438.887H621.435V454.949Z" fill="white"/>
<path d="M634.701 429.588H641.651V455.645C641.651 458.977 638.97 461.662 635.644 461.662H626.46V454.949H634.701V429.588Z" fill="white"/>
<path d="M646.153 429.588H653.103V461.662H646.153V429.588Z" fill="white"/>
<path d="M696.224 439.235C701.04 439.235 704.912 443.114 704.912 447.887V453.059C704.912 457.833 701.04 461.712 696.224 461.712H691.409C686.643 461.712 682.771 457.833 682.771 453.059V452.214H676.863C675.572 452.214 674.53 453.258 674.53 454.601V469.768H667.778V454.203C667.778 449.18 671.849 445.103 676.863 445.103H683.217C684.756 441.423 687.834 439.235 691.409 439.235H696.224ZM698.16 451.866V449.031C698.16 447.34 696.77 445.948 695.082 445.948H692.6C690.863 445.948 689.473 447.34 689.473 449.031V451.866C689.473 453.606 690.863 454.999 692.6 454.999H695.082C696.77 454.999 698.16 453.606 698.16 451.866Z" fill="white"/>
<path d="M716.556 454.402H724.648V446.197H720.626C718.392 446.197 716.556 448.037 716.556 450.274V454.402ZM731.697 454.949H738.746V461.662H731.697C731.548 464.845 730.406 467.48 728.321 469.569C726.087 471.757 723.357 472.901 720.031 473H715.761V466.983H719.832C721.172 466.983 722.314 466.486 723.258 465.541C724.201 464.596 724.648 463.502 724.648 462.159V461.016H714.719C713.329 461.016 712.137 460.518 711.194 459.524C710.201 458.579 709.705 457.385 709.705 456.043V450.424C709.705 447.291 710.797 444.655 713.031 442.417C715.215 440.229 717.846 439.135 720.974 439.135H731.697V454.949Z" fill="white"/>
<path d="M751.992 454.949H759.339V461.662H736.652V454.949H745.042V429.637H751.992V454.949Z" fill="white"/>
<path d="M785.562 454.949H796.335V461.662H781.492C779.754 461.662 778.265 460.966 777.57 460.27C776.875 460.966 775.385 461.662 773.698 461.662H757.365V454.949H769.528L762.279 447.539L763.322 442.069L767.989 439.931C771.364 438.489 774.393 437.842 777.52 437.842C780.697 437.842 783.726 438.489 787.101 439.931L791.768 442.069L792.761 447.539L785.562 454.949ZM770.471 446.246L777.52 453.507L784.619 446.246C782.137 445.152 779.903 444.705 777.52 444.705C775.187 444.705 772.953 445.152 770.471 446.246Z" fill="white"/>
<path d="M802.733 429.588H809.684V455.645C809.684 458.977 807.003 461.662 803.677 461.662H794.493V454.949H802.733V429.588Z" fill="white"/>
<path d="M830.721 454.949H838.565V461.662H829.728C826.452 461.662 823.771 459.027 823.771 455.695V429.588H830.721V454.949Z" fill="white"/>
<path d="M840.393 466.883C840.393 464.994 841.932 463.403 843.868 463.403C845.754 463.403 847.343 464.994 847.343 466.883C847.343 468.823 845.754 470.364 843.868 470.364C841.932 470.364 840.393 468.823 840.393 466.883ZM849.428 466.883C849.428 464.994 850.967 463.403 852.903 463.403C854.789 463.403 856.378 464.994 856.378 466.883C856.378 468.823 854.789 470.364 852.903 470.364C850.967 470.364 849.428 468.823 849.428 466.883ZM851.91 454.949H859.257V461.662H836.57V454.949H844.96V438.887H851.91V454.949Z" fill="white"/>
<path d="M872.126 454.949H879.474V461.662H856.786V454.949H865.176V429.637H872.126V454.949Z" fill="white"/>
<path d="M905.697 454.949H916.469V461.662H901.626C899.888 461.662 898.399 460.966 897.704 460.27C897.009 460.966 895.52 461.662 893.832 461.662H877.499V454.949H889.662L882.414 447.539L883.456 442.069L888.123 439.931C891.499 438.489 894.527 437.842 897.654 437.842C900.832 437.842 903.86 438.489 907.236 439.931L911.902 442.069L912.895 447.539L905.697 454.949ZM890.605 446.246L897.654 453.507L904.753 446.246C902.271 445.152 900.037 444.705 897.654 444.705C895.321 444.705 893.087 445.152 890.605 446.246Z" fill="white"/>
<path d="M922.868 429.588H929.818V455.645C929.818 458.977 927.137 461.662 923.811 461.662H914.627V454.949H922.868V429.588Z" fill="white"/>
<path d="M934.32 429.588H941.27V461.662H934.32V429.588Z" fill="white"/>
<path d="M974.859 429.737C972.923 429.737 971.384 428.195 971.384 426.256C971.384 424.366 972.923 422.775 974.859 422.775C976.746 422.775 978.335 424.366 978.335 426.256C978.335 428.195 976.746 429.737 974.859 429.737ZM965.278 429.737C963.392 429.737 961.803 428.195 961.803 426.256C961.803 424.366 963.392 422.775 965.278 422.775C967.214 422.775 968.803 424.366 968.803 426.256C968.803 428.195 967.214 429.737 965.278 429.737ZM978.98 454.949H987.618V461.662H976.994C974.959 461.662 973.172 460.419 972.179 457.932H961.753C958.924 457.932 956.64 455.645 956.64 452.811V447.142C956.64 440.776 961.803 435.605 968.158 435.605H971.98V434.312H978.98V454.949ZM963.59 446.793V450.971H971.98V442.616H967.81C965.477 442.616 963.59 444.456 963.59 446.793Z" fill="white"/>
<path d="M989.469 466.883C989.469 464.994 991.008 463.403 992.945 463.403C994.831 463.403 996.42 464.994 996.42 466.883C996.42 468.823 994.831 470.364 992.945 470.364C991.008 470.364 989.469 468.823 989.469 466.883ZM998.505 466.883C998.505 464.994 1000.04 463.403 1001.98 463.403C1003.87 463.403 1005.45 464.994 1005.45 466.883C1005.45 468.823 1003.87 470.364 1001.98 470.364C1000.04 470.364 998.505 468.823 998.505 466.883ZM1000.99 454.949H1008.33V461.662H985.647V454.949H994.037V438.887H1000.99V454.949Z" fill="white"/>
<path d="M1014.2 432.671C1014.2 430.781 1015.74 429.19 1017.68 429.19C1019.56 429.19 1021.15 430.781 1021.15 432.671C1021.15 434.61 1019.56 436.152 1017.68 436.152C1015.74 436.152 1014.2 434.61 1014.2 432.671ZM1021.2 454.949H1028.55V461.662H1005.86V454.949H1014.25V438.887H1021.2V454.949Z" fill="white"/>
<path d="M1058.75 438.887C1065.25 438.887 1070.46 444.158 1070.46 450.623V458.231C1070.46 460.121 1068.92 461.662 1067.09 461.662H1040.77C1040.67 462.557 1040.67 463.403 1040.72 464.298C1040.72 464.347 1040.72 464.397 1040.67 464.447C1040.63 464.596 1040.48 464.646 1040.33 464.596C1039.58 464.248 1037.89 463.403 1036.75 461.662H1026.58V454.949H1034.37V429.538H1041.47V445.55C1044.89 441.323 1050.06 438.887 1055.52 438.887H1058.75ZM1063.51 454.949V451.319C1063.51 448.186 1060.98 445.6 1057.85 445.6H1057.11C1051.65 445.6 1046.58 448.584 1043.85 453.358L1042.96 454.949H1063.51Z" fill="white"/>
<path d="M1082.15 454.402H1090.24V446.197H1086.22C1083.98 446.197 1082.15 448.037 1082.15 450.274V454.402ZM1097.29 454.949H1104.34V461.662H1097.29C1097.14 464.845 1096 467.48 1093.91 469.569C1091.68 471.757 1088.95 472.901 1085.62 473H1081.35V466.983H1085.42C1086.76 466.983 1087.9 466.486 1088.85 465.541C1089.79 464.596 1090.24 463.502 1090.24 462.159V461.016H1080.31C1078.92 461.016 1077.73 460.518 1076.78 459.524C1075.79 458.579 1075.29 457.385 1075.29 456.043V450.424C1075.29 447.291 1076.39 444.655 1078.62 442.417C1080.81 440.229 1083.44 439.135 1086.56 439.135H1097.29V454.949Z" fill="white"/>
<path d="M1110.63 429.588H1117.58V455.645C1117.58 458.977 1114.9 461.662 1111.58 461.662H1102.39V454.949H1110.63V429.588Z" fill="white"/>
<path d="M1122.08 429.588H1129.03V461.662H1122.08V429.588Z" fill="white"/>
<path d="M1162.62 429.737C1160.69 429.737 1159.15 428.195 1159.15 426.256C1159.15 424.366 1160.69 422.775 1162.62 422.775C1164.51 422.775 1166.1 424.366 1166.1 426.256C1166.1 428.195 1164.51 429.737 1162.62 429.737ZM1153.04 429.737C1151.16 429.737 1149.57 428.195 1149.57 426.256C1149.57 424.366 1151.16 422.775 1153.04 422.775C1154.98 422.775 1156.57 424.366 1156.57 426.256C1156.57 428.195 1154.98 429.737 1153.04 429.737ZM1166.74 454.949H1175.38V461.662H1164.76C1162.72 461.662 1160.94 460.419 1159.94 457.932H1149.52C1146.69 457.932 1144.4 455.645 1144.4 452.811V447.142C1144.4 440.776 1149.57 435.605 1155.92 435.605H1159.74V434.312H1166.74V454.949ZM1151.35 446.793V450.971H1159.74V442.616H1155.57C1153.24 442.616 1151.35 444.456 1151.35 446.793Z" fill="white"/>
<path d="M1210.35 439.086H1217.49V452.86C1217.49 457.734 1213.52 461.662 1208.66 461.662H1205.68C1203.1 461.662 1200.81 460.618 1199.77 459.574C1198.78 460.618 1196.45 461.662 1193.86 461.662H1173.91V454.949H1182.05V439.135H1189.15V454.949H1194.01C1195.25 454.949 1196.3 453.905 1196.3 452.612V439.086H1203.25V452.214C1203.25 452.363 1203.25 452.462 1203.25 452.612C1203.25 453.905 1204.29 454.949 1205.58 454.949H1208.11C1209.35 454.949 1210.35 453.905 1210.35 452.661V439.086Z" fill="white"/>
<path d="M1228.59 439.135H1235.69V461.264C1235.69 467.729 1230.43 473 1223.97 473H1219.76V466.983H1223.78C1226.41 466.983 1228.59 464.795 1228.59 462.159V439.135Z" fill="white"/>
<path d="M1264.85 454.949H1272.99V461.662H1240.02V454.949H1258.05V449.479C1258.05 447.539 1256.46 445.948 1254.47 445.948H1244.59V439.135H1255.46C1260.63 439.135 1264.85 443.313 1264.85 448.534V454.949Z" fill="white"/>
<path d="M1292.75 451.866V449.031C1292.75 447.291 1291.36 445.898 1289.67 445.898H1287.19C1285.45 445.898 1284.06 447.291 1284.06 449.031V454.949H1289.67C1291.36 454.949 1292.75 453.556 1292.75 451.866ZM1303.03 461.662C1301.69 461.612 1300.5 461.364 1299.4 460.916C1298.21 460.469 1297.32 459.922 1296.77 459.325C1295.23 460.866 1293.25 461.662 1290.82 461.662H1270.96V454.949H1277.36V447.838C1277.36 445.451 1278.21 443.412 1279.89 441.721C1281.58 440.031 1283.62 439.185 1286 439.185H1290.82C1293.25 439.185 1295.28 440.031 1296.97 441.721C1298.66 443.412 1299.5 445.451 1299.5 447.838V451.866C1300.45 453.954 1301.59 454.999 1302.93 454.949H1305.56V461.662H1303.03Z" fill="white"/>
<path d="M1312.07 429.588H1319.02V455.645C1319.02 458.977 1316.34 461.662 1313.01 461.662H1303.83V454.949H1312.07V429.588Z" fill="white"/>
<path d="M1323.52 429.588H1330.47V461.662H1323.52V429.588Z" fill="white"/>
<path d="M245 181C245 185.418 241.709 189 237.65 189C233.591 189 230 185.418 230 181C230 176.582 233.591 173 237.65 173C241.709 173 245 176.582 245 181Z" fill="#D36323"/>
<path d="M245 303C245 307.418 241.709 311 237.65 311C233.591 311 230 307.418 230 303C230 298.582 233.591 295 237.65 295C241.709 295 245 298.582 245 303Z" fill="#D36323"/>
<path d="M184.352 242.199C184.352 246.617 181.061 250.199 177.002 250.199C172.942 250.199 169.352 246.617 169.352 242.199C169.352 237.781 172.942 234.199 177.002 234.199C181.061 234.199 184.352 237.781 184.352 242.199Z" fill="#D36323"/>
<path d="M233.914 170.468C233.914 170.717 233.477 170.998 232.823 171.122C232.23 171.216 231.731 171.497 231.731 171.715C231.731 171.933 231.263 172.214 230.671 172.307C229.985 172.432 229.548 172.713 229.455 173.118C229.361 173.461 229.081 173.742 228.8 173.742C228.519 173.742 228.239 174.147 228.114 174.833C228.02 175.457 227.74 175.925 227.49 175.925C227.21 175.925 227.054 176.299 227.054 177.016C227.054 177.889 226.929 178.107 226.43 178.107C225.9 178.107 225.806 178.326 225.806 179.355V179.355C225.806 180.044 225.248 180.602 224.559 180.602V180.602C223.717 180.602 223.312 180.727 223.312 181.039C223.312 181.35 222.657 181.538 220.973 181.693C219.258 181.849 218.634 182.036 218.634 182.348C218.634 182.629 218.291 182.785 217.637 182.785C216.14 182.785 215.204 183.097 215.204 183.596C215.204 183.907 214.799 184.032 213.957 184.032C213.115 184.032 212.71 184.157 212.71 184.469C212.71 184.936 211.774 185.279 210.465 185.279C209.934 185.279 209.591 185.435 209.591 185.716C209.591 185.997 209.124 186.246 208.344 186.371C207.565 186.496 207.097 186.745 207.097 187.026C207.097 187.275 206.816 187.462 206.473 187.462C206.068 187.462 205.849 187.681 205.849 188.086C205.849 188.616 205.631 188.71 204.602 188.71C203.573 188.71 203.355 188.803 203.355 189.333C203.355 189.895 203.137 189.957 201.64 189.957C200.143 189.957 199.925 189.895 199.925 189.333C199.925 188.772 199.706 188.71 198.21 188.71C196.931 188.71 196.495 188.585 196.495 188.273C196.495 187.712 194.468 187.338 192.94 187.618C192.285 187.743 191.817 188.024 191.817 188.273C191.817 188.585 191.349 188.71 190.102 188.71C188.605 188.71 188.387 188.772 188.387 189.333C188.387 189.739 188.169 189.957 187.763 189.957C187.42 189.957 187.14 190.144 187.14 190.393C187.14 190.612 186.859 190.892 186.516 190.986C186.173 191.079 185.892 191.36 185.892 191.61C185.892 191.859 185.612 192.14 185.269 192.233C184.926 192.327 184.645 192.607 184.645 192.888C184.645 193.169 184.427 193.387 184.177 193.387C183.866 193.387 183.71 193.699 183.71 194.385C183.71 195.882 183.398 196.817 182.899 196.817C182.556 196.817 182.462 197.41 182.462 199.312C182.462 201.214 182.556 201.806 182.899 201.806C183.367 201.806 183.71 202.742 183.71 204.052C183.71 204.582 183.866 204.925 184.146 204.925C184.365 204.925 184.645 205.33 184.77 205.86C184.988 207.076 184.676 208.667 184.177 208.667C183.959 208.667 183.679 209.166 183.585 209.758C183.46 210.413 183.18 210.849 182.93 210.849C182.681 210.849 182.462 211.13 182.462 211.473C182.462 211.816 182.244 212.097 181.995 212.097C181.683 212.097 181.465 212.533 181.34 213.344C181.215 214.03 180.966 214.591 180.747 214.591C180.311 214.591 179.968 215.558 179.968 216.836C179.968 217.367 179.812 217.71 179.531 217.71C179.282 217.71 179.032 218.209 178.908 218.957C178.783 219.768 178.565 220.204 178.253 220.204C177.91 220.204 177.785 220.61 177.785 221.888C177.785 223.291 177.691 223.572 177.161 223.728C176.6 223.884 176.538 224.164 176.538 226.098C176.538 227.782 176.444 228.312 176.101 228.312C175.82 228.312 175.571 228.78 175.446 229.559C175.259 230.744 175.166 230.806 174.168 230.806C173.326 230.806 173.108 230.931 173.108 231.43C173.108 231.96 172.889 232.054 171.86 232.054C170.987 232.054 170.613 232.178 170.613 232.521C170.613 232.771 170.176 233.052 169.553 233.145C168.867 233.301 168.43 233.582 168.337 233.956C168.243 234.268 167.962 234.548 167.682 234.548C167.308 234.548 167.183 234.86 167.183 235.64C167.183 236.513 167.058 236.731 166.559 236.731C166.06 236.731 165.935 236.949 165.935 237.823C165.935 238.571 165.78 238.914 165.468 238.914C165.094 238.914 165 239.506 165 242.5C165 245.493 165.094 246.086 165.468 246.086C165.78 246.086 165.935 246.429 165.935 247.177C165.935 248.05 166.06 248.269 166.559 248.269C167.058 248.269 167.183 248.487 167.183 249.36C167.183 250.327 167.276 250.452 168.243 250.607C168.929 250.763 169.366 251.044 169.459 251.418C169.553 251.73 169.833 252.011 170.114 252.011C170.395 252.011 170.613 252.229 170.613 252.478C170.613 252.821 170.956 252.946 171.86 252.946C172.889 252.946 173.108 253.04 173.108 253.57C173.108 254.069 173.326 254.194 174.168 254.194C175.166 254.194 175.259 254.256 175.446 255.441C175.571 256.22 175.82 256.688 176.101 256.688C176.444 256.688 176.538 257.218 176.538 258.902C176.538 260.835 176.6 261.116 177.161 261.272C177.691 261.428 177.785 261.709 177.785 263.112C177.785 264.39 177.91 264.796 178.253 264.796C178.565 264.796 178.783 265.232 178.908 266.043C179.032 266.791 179.282 267.29 179.531 267.29C179.812 267.29 179.968 267.633 179.968 268.132C179.968 269.442 180.311 270.409 180.747 270.409C180.966 270.409 181.215 270.97 181.34 271.656C181.465 272.467 181.683 272.903 181.995 272.903C182.244 272.903 182.462 273.184 182.462 273.527C182.462 273.87 182.681 274.151 182.93 274.151C183.18 274.151 183.46 274.587 183.585 275.242C183.679 275.834 183.959 276.333 184.177 276.333C184.676 276.333 184.988 277.924 184.77 279.14C184.645 279.639 184.365 280.075 184.146 280.075C183.866 280.075 183.71 280.418 183.71 280.917C183.71 282.258 183.367 283.194 182.899 283.194C182.556 283.194 182.462 283.786 182.462 285.688C182.462 287.59 182.556 288.183 182.899 288.183C183.398 288.183 183.71 289.118 183.71 290.584C183.71 291.301 183.866 291.613 184.177 291.613C184.427 291.613 184.645 291.831 184.645 292.112C184.645 292.392 184.926 292.673 185.269 292.767C185.612 292.86 185.892 293.141 185.892 293.39C185.892 293.64 186.173 293.92 186.516 294.014C186.859 294.108 187.14 294.388 187.14 294.606C187.14 294.856 187.42 295.043 187.763 295.043C188.169 295.043 188.387 295.261 188.387 295.667C188.387 296.228 188.605 296.29 190.102 296.29C191.381 296.29 191.817 296.415 191.817 296.727C191.817 297.288 193.844 297.662 195.372 297.382C196.027 297.257 196.495 296.976 196.495 296.727C196.495 296.415 196.962 296.29 198.21 296.29C199.706 296.29 199.925 296.228 199.925 295.667C199.925 295.105 200.143 295.043 201.64 295.043C203.137 295.043 203.355 295.105 203.355 295.667C203.355 296.197 203.573 296.29 204.602 296.29C205.631 296.29 205.849 296.384 205.849 296.914C205.849 297.319 206.068 297.538 206.473 297.538C206.816 297.538 207.097 297.725 207.097 297.974C207.097 298.255 207.565 298.504 208.344 298.629C209.124 298.754 209.591 299.003 209.591 299.284C209.591 299.565 209.934 299.72 210.465 299.72C211.774 299.72 212.71 300.063 212.71 300.531C212.71 300.843 213.115 300.968 213.957 300.968C214.799 300.968 215.204 301.092 215.204 301.404C215.204 301.903 216.14 302.215 217.637 302.215C218.26 302.215 218.634 302.371 218.634 302.652C218.634 302.963 219.289 303.151 220.973 303.306C222.688 303.462 223.312 303.649 223.312 303.961C223.312 304.273 223.686 304.398 224.559 304.398V304.398C225.248 304.398 225.806 304.956 225.806 305.645V305.645C225.806 306.674 225.9 306.892 226.43 306.892C226.929 306.892 227.054 307.111 227.054 307.984C227.054 308.732 227.21 309.075 227.522 309.075C227.771 309.075 227.989 309.356 227.989 309.699C227.989 310.104 228.208 310.323 228.582 310.323C229.018 310.323 229.237 310.634 229.361 311.414C229.548 312.318 229.736 312.505 230.64 312.692C231.263 312.786 231.731 313.067 231.731 313.316C231.731 313.597 232.105 313.753 232.823 313.753C233.696 313.753 233.914 313.877 233.914 314.376C233.914 314.969 234.132 315 237.5 315C240.462 315 241.086 314.906 241.086 314.532C241.086 314.22 241.523 314.002 242.333 313.877C243.051 313.753 243.581 313.503 243.581 313.285C243.581 313.035 244.017 312.786 244.516 312.661C245.046 312.537 245.452 312.256 245.452 311.975C245.452 311.726 245.732 311.445 246.075 311.352C246.481 311.258 246.761 310.822 246.886 310.135C246.98 309.543 247.26 309.075 247.479 309.075C247.697 309.075 247.977 308.576 248.071 307.984C248.196 307.391 248.476 306.892 248.695 306.892C249.006 306.892 249.194 306.175 249.35 304.554C249.599 301.81 249.318 299.72 248.726 299.72C248.476 299.72 248.196 299.253 248.071 298.629C247.977 298.037 247.697 297.538 247.479 297.538C247.26 297.538 246.98 297.07 246.886 296.477C246.761 295.791 246.481 295.355 246.075 295.261C245.732 295.168 245.452 294.887 245.452 294.638C245.452 294.357 245.046 294.076 244.516 293.952C244.017 293.827 243.581 293.577 243.581 293.328C243.581 293.11 243.051 292.86 242.333 292.735C241.523 292.611 241.086 292.392 241.086 292.081C241.086 291.706 240.587 291.613 238.591 291.613C236.315 291.613 236.097 291.551 236.097 290.989C236.097 290.646 235.879 290.366 235.629 290.366C235.255 290.366 235.161 289.96 235.161 288.651C235.161 287.154 235.099 286.935 234.538 286.935C233.976 286.935 233.914 286.717 233.914 285.22C233.914 283.973 233.789 283.505 233.477 283.505C233.072 283.505 232.667 282.227 232.667 280.824C232.667 280.356 232.48 280.075 232.199 280.075C231.887 280.075 231.731 279.763 231.731 279.171C231.731 277.643 231.357 276.333 230.92 276.333C230.609 276.333 230.484 275.866 230.484 274.618C230.484 273.121 230.422 272.903 229.86 272.903C229.361 272.903 229.237 272.685 229.237 271.812C229.237 270.939 229.361 270.72 229.86 270.72C230.266 270.72 230.484 270.502 230.484 270.097C230.484 269.691 230.702 269.473 231.108 269.473C231.513 269.473 231.731 269.255 231.731 268.849C231.731 268.288 231.95 268.226 233.446 268.226C234.943 268.226 235.161 268.288 235.161 268.849C235.161 269.38 235.38 269.473 236.409 269.473C237.282 269.473 237.656 269.598 237.656 269.941C237.656 270.19 238.093 270.471 238.747 270.596C239.371 270.689 239.839 270.97 239.839 271.219C239.839 271.5 240.213 271.656 240.868 271.656C242.333 271.656 243.269 271.968 243.269 272.467C243.269 272.778 243.674 272.903 244.516 272.903C245.545 272.903 245.763 272.997 245.763 273.527C245.763 274.057 245.982 274.151 247.011 274.151V274.151C247.7 274.151 248.258 273.592 248.258 272.903V271.812C248.258 269.66 248.196 269.473 247.603 269.473C247.229 269.473 246.886 269.224 246.793 268.849C246.668 268.351 246.356 268.226 245.14 268.226C243.924 268.226 243.612 268.101 243.487 267.602C243.362 267.134 243.051 266.978 242.209 266.978C241.46 266.978 241.086 266.823 241.086 266.542C241.086 266.261 240.618 266.012 239.839 265.887C239.059 265.762 238.591 265.513 238.591 265.232C238.591 264.952 238.217 264.796 237.469 264.796C236.627 264.796 236.315 264.64 236.19 264.172C236.097 263.829 235.816 263.548 235.598 263.548C235.255 263.548 235.161 262.894 235.161 260.586C235.161 258.154 235.068 257.624 234.694 257.624C233.82 257.624 234.226 256.75 235.161 256.532C235.691 256.407 236.097 256.127 236.097 255.877C236.097 255.628 236.377 255.441 236.752 255.441C237.126 255.441 237.469 255.191 237.562 254.817C237.687 254.349 237.999 254.194 238.779 254.194C239.62 254.194 239.839 254.069 239.839 253.57C239.839 253.164 240.057 252.946 240.462 252.946C240.805 252.946 241.086 252.759 241.086 252.51C241.086 252.26 241.554 251.98 242.177 251.886C242.832 251.761 243.269 251.481 243.269 251.231C243.269 250.982 243.55 250.763 243.893 250.763C244.298 250.763 244.516 250.545 244.516 250.14C244.516 249.61 244.734 249.516 245.763 249.516C246.793 249.516 247.011 249.423 247.011 248.892C247.011 248.487 247.229 248.269 247.634 248.269C248.196 248.269 248.258 248.05 248.258 245.961C248.258 244.683 248.165 243.435 248.071 243.155C247.822 242.531 247.011 242.5 247.011 243.124C247.011 243.373 246.73 243.591 246.387 243.591C245.982 243.591 245.763 243.81 245.763 244.215C245.763 244.714 245.545 244.839 244.703 244.839C243.924 244.839 243.612 244.995 243.487 245.462C243.394 245.837 243.051 246.086 242.676 246.086C242.302 246.086 242.022 246.273 242.022 246.554C242.022 246.803 241.585 247.084 240.93 247.209C240.306 247.302 239.839 247.583 239.839 247.832C239.839 248.082 239.558 248.269 239.215 248.269C238.81 248.269 238.591 248.487 238.591 248.892C238.591 249.391 238.373 249.516 237.531 249.516C236.752 249.516 236.44 249.672 236.315 250.14C236.19 250.576 235.879 250.763 235.224 250.763C234.569 250.763 234.257 250.95 234.132 251.387C234.039 251.761 233.696 252.011 233.322 252.011C232.947 252.011 232.667 252.198 232.667 252.478C232.667 252.728 232.386 252.946 232.043 252.946C231.7 252.946 231.419 252.728 231.419 252.478C231.419 252.229 230.983 251.948 230.328 251.824C229.704 251.73 229.237 251.449 229.237 251.2C229.237 250.919 228.862 250.763 228.145 250.763V250.763C227.542 250.763 227.054 250.275 227.054 249.672V248.269C227.054 246.273 227.147 245.774 227.522 245.774C227.865 245.774 227.989 245.369 227.989 244.121C227.989 239.756 228.395 235.484 228.831 235.484C229.143 235.484 229.237 234.891 229.237 233.145V232.054C229.237 231.365 229.795 230.806 230.484 230.806V230.806C231.513 230.806 231.731 230.713 231.731 230.183C231.731 229.684 231.949 229.559 232.823 229.559C233.571 229.559 233.914 229.403 233.914 229.091C233.914 228.842 234.195 228.624 234.538 228.624C234.943 228.624 235.161 228.405 235.161 228C235.161 227.595 235.38 227.376 235.785 227.376C236.19 227.376 236.409 227.158 236.409 226.753C236.409 226.254 236.627 226.129 237.5 226.129C238.217 226.129 238.591 226.285 238.591 226.566C238.591 226.846 239.059 227.096 239.839 227.22C240.556 227.345 241.086 227.595 241.086 227.844C241.086 228.093 241.616 228.343 242.333 228.468C243.113 228.592 243.581 228.842 243.581 229.123C243.581 229.403 243.924 229.559 244.454 229.559C245.763 229.559 246.699 229.902 246.699 230.37C246.699 230.619 246.917 230.806 247.167 230.806C247.541 230.806 247.634 230.37 247.603 228.686C247.541 225.443 247.385 225.069 245.826 224.944C244.953 224.882 244.516 224.695 244.516 224.414C244.516 224.164 244.048 223.884 243.425 223.759C242.801 223.666 242.333 223.385 242.333 223.135C242.333 222.824 241.928 222.699 241.086 222.699V222.699C240.397 222.699 239.839 222.14 239.839 221.452V219.736V218.458C239.839 217.528 240.593 216.774 241.523 216.774V216.774C242.926 216.774 243.206 216.681 243.362 216.15C243.487 215.683 243.799 215.527 244.641 215.527C245.42 215.527 245.763 215.371 245.763 215.09C245.763 214.778 246.169 214.591 246.948 214.529V214.529C247.63 214.474 248.191 213.97 248.32 213.299L248.539 212.159V212.159C248.824 210.529 247.911 209.387 246.366 209.979C246.011 210.115 245.763 210.27 245.763 210.413C245.763 210.725 245.327 210.849 244.048 210.849C242.552 210.849 242.333 210.912 242.333 211.473C242.333 212.034 242.115 212.097 240.462 212.097C238.997 212.097 238.591 212.19 238.591 212.564C238.591 213.438 237.718 213.032 237.5 212.097C237.375 211.567 237.095 211.161 236.814 211.161C236.565 211.161 236.284 210.881 236.19 210.538C236.097 210.132 235.66 209.852 234.974 209.727C234.226 209.602 233.914 209.353 233.914 208.947C233.914 208.604 233.696 208.355 233.446 208.355C233.197 208.355 232.979 208.136 232.979 207.887C232.979 207.638 233.197 207.419 233.446 207.419C233.789 207.419 233.914 207.045 233.914 206.047C233.914 204.083 234.257 202.742 234.725 202.742C235.068 202.742 235.161 202.181 235.161 200.403C235.161 198.283 235.224 198.064 235.785 198.064C236.346 198.064 236.409 197.846 236.409 195.726V195.726C236.409 194.434 237.456 193.387 238.747 193.387V193.387C240.618 193.387 241.086 193.293 241.086 192.919C241.086 192.607 241.523 192.389 242.333 192.264C243.051 192.14 243.581 191.89 243.581 191.672C243.581 191.422 243.986 191.173 244.485 191.048C245.015 190.955 245.452 190.612 245.545 190.238C245.639 189.926 245.919 189.645 246.2 189.645C246.481 189.645 246.761 189.24 246.886 188.554C246.98 187.961 247.26 187.462 247.447 187.462C248.071 187.462 248.57 184.843 248.57 181.693C248.57 178.544 248.071 175.925 247.447 175.925C247.26 175.925 246.98 175.457 246.886 174.864C246.761 174.178 246.481 173.742 246.075 173.648C245.732 173.555 245.452 173.274 245.452 173.025C245.452 172.744 245.046 172.463 244.516 172.339C244.017 172.214 243.581 171.964 243.581 171.715C243.581 171.497 243.051 171.247 242.333 171.122C241.523 170.998 241.086 170.779 241.086 170.468C241.086 170.093 240.462 170 237.5 170C234.569 170 233.914 170.093 233.914 170.468ZM239.839 175.145C239.839 175.457 240.275 175.675 241.086 175.8C242.022 175.956 242.333 176.143 242.333 176.579C242.333 176.922 242.552 177.172 242.801 177.172C243.051 177.172 243.331 177.609 243.456 178.263C243.55 178.887 243.83 179.355 244.08 179.355C244.423 179.355 244.516 179.916 244.516 181.693C244.516 183.471 244.423 184.032 244.08 184.032C243.83 184.032 243.55 184.5 243.456 185.124C243.331 185.778 243.051 186.215 242.801 186.215C242.552 186.215 242.333 186.464 242.333 186.807C242.333 187.244 242.022 187.431 241.086 187.587C240.275 187.712 239.839 187.93 239.839 188.242C239.839 188.616 239.371 188.71 237.5 188.71C235.66 188.71 235.161 188.616 235.161 188.242C235.161 187.992 234.725 187.712 234.101 187.618C233.415 187.462 232.979 187.182 232.885 186.807C232.791 186.496 232.511 186.215 232.261 186.215C231.981 186.215 231.731 185.778 231.606 185.124C231.482 184.469 231.201 184.032 230.952 184.032C230.577 184.032 230.484 183.533 230.484 181.693C230.484 179.854 230.577 179.355 230.952 179.355C231.201 179.355 231.482 178.918 231.575 178.295C231.731 177.609 232.012 177.172 232.386 177.078C232.698 176.985 232.979 176.704 232.979 176.455C232.979 176.174 233.415 175.925 234.07 175.8C234.725 175.675 235.161 175.395 235.161 175.145C235.161 174.771 235.66 174.677 237.5 174.677C239.371 174.677 239.839 174.771 239.839 175.145ZM227.054 186.371C227.054 187.119 227.21 187.462 227.522 187.462C227.771 187.462 227.989 187.743 227.989 188.086C227.989 188.491 228.208 188.71 228.613 188.71C229.018 188.71 229.237 188.928 229.237 189.333C229.237 189.739 229.455 189.957 229.86 189.957C230.266 189.957 230.484 190.175 230.484 190.581C230.484 190.986 230.702 191.204 231.108 191.204C231.513 191.204 231.731 191.422 231.731 191.828C231.731 192.171 231.95 192.452 232.199 192.452C232.448 192.452 232.667 192.67 232.667 192.919C232.667 193.169 232.448 193.387 232.199 193.387C231.856 193.387 231.731 193.761 231.731 194.759C231.731 196.724 231.388 198.064 230.92 198.064C230.577 198.064 230.484 198.626 230.484 200.403C230.484 202.524 230.422 202.742 229.86 202.742C229.299 202.742 229.237 202.96 229.237 205.081V205.081C229.237 206.372 228.19 207.419 226.898 207.419V207.419C224.777 207.419 224.559 207.482 224.559 208.043C224.559 208.542 224.341 208.667 223.468 208.667C222.719 208.667 222.376 208.823 222.376 209.134C222.376 209.415 222.096 209.602 221.722 209.602C221.347 209.602 221.004 209.852 220.911 210.226C220.786 210.756 220.474 210.849 219.227 210.849C218.104 210.849 217.699 210.725 217.699 210.413C217.699 210.132 217.231 209.883 216.452 209.758C215.734 209.633 215.204 209.384 215.204 209.134C215.204 208.916 214.705 208.635 214.113 208.542C213.458 208.417 213.022 208.136 213.022 207.887C213.022 207.638 212.741 207.419 212.398 207.419C212.055 207.419 211.774 207.232 211.774 206.983C211.774 206.702 211.306 206.453 210.527 206.328C209.779 206.203 209.28 205.954 209.28 205.704C209.28 205.455 208.812 205.174 208.188 205.049C207.565 204.956 207.097 204.675 207.097 204.426C207.097 204.176 206.816 203.989 206.473 203.989C205.881 203.989 205.849 203.771 205.849 199.779C205.849 196.256 205.787 195.57 205.382 195.57C205.07 195.57 204.914 195.227 204.914 194.478C204.914 193.449 204.976 193.387 206.005 193.387C206.879 193.387 207.097 193.262 207.097 192.763C207.097 192.358 207.315 192.14 207.72 192.14C208.063 192.14 208.344 191.953 208.344 191.703C208.344 191.454 208.812 191.173 209.436 191.079C210.09 190.955 210.527 190.674 210.527 190.425C210.527 190.082 210.901 189.957 211.774 189.957C212.803 189.957 213.022 189.863 213.022 189.333C213.022 188.772 213.24 188.71 214.737 188.71C216.233 188.71 216.452 188.647 216.452 188.086C216.452 187.525 216.67 187.462 218.167 187.462C219.414 187.462 219.882 187.338 219.882 187.026C219.882 186.589 221.191 186.215 222.719 186.215C223.312 186.215 223.624 186.059 223.624 185.747C223.624 185.373 224.029 185.279 225.339 185.279H225.962C226.565 185.279 227.054 185.768 227.054 186.371V186.371ZM195.528 192.327C196.058 192.452 196.495 192.732 196.495 192.95C196.495 193.231 196.869 193.387 197.555 193.387C198.334 193.387 198.646 193.543 198.771 194.011C198.865 194.354 199.145 194.634 199.426 194.634C199.706 194.634 199.925 194.884 199.925 195.258C199.925 195.663 200.143 195.882 200.548 195.882C201.141 195.882 201.172 196.1 201.172 199.312C201.172 202.524 201.141 202.742 200.548 202.742C200.143 202.742 199.925 202.96 199.925 203.366C199.925 203.709 199.738 203.989 199.488 203.989C199.27 203.989 198.989 204.27 198.896 204.613C198.802 204.956 198.522 205.236 198.241 205.236C197.96 205.236 197.742 205.455 197.742 205.704C197.742 206.078 197.149 206.172 194.343 206.172C191.225 206.172 190.944 206.11 190.788 205.548C190.695 205.205 190.414 204.925 190.133 204.925C189.853 204.925 189.634 204.706 189.634 204.457C189.634 204.207 189.354 203.989 189.011 203.989C188.512 203.989 188.387 203.771 188.387 202.867C188.387 202.025 188.231 201.713 187.763 201.588C187.233 201.432 187.14 201.152 187.14 199.748C187.14 198.501 187.265 198.064 187.576 198.064C187.857 198.064 188.106 197.597 188.231 196.817C188.356 196.038 188.605 195.57 188.886 195.57C189.135 195.57 189.323 195.352 189.323 195.071C189.323 194.79 189.603 194.51 189.946 194.416C190.289 194.322 190.57 194.042 190.57 193.824C190.57 193.543 190.944 193.387 191.63 193.387C192.41 193.387 192.722 193.231 192.846 192.763C193.002 192.109 193.751 191.984 195.528 192.327ZM203.667 207.887C203.667 208.136 204.103 208.417 204.758 208.542C205.351 208.635 205.849 208.916 205.849 209.134C205.849 209.353 206.348 209.633 206.941 209.727C207.533 209.852 208.032 210.132 208.032 210.35C208.032 210.6 208.562 210.849 209.28 210.974C210.09 211.099 210.527 211.317 210.527 211.629C210.527 211.878 210.808 212.097 211.151 212.097C211.494 212.097 211.774 212.315 211.774 212.564C211.774 212.814 212.211 213.095 212.866 213.219C213.458 213.313 213.957 213.593 213.957 213.812C213.957 214.061 214.487 214.311 215.204 214.435V214.435C215.925 214.562 216.452 215.188 216.452 215.92V218.489V221.302C216.452 221.882 216.05 222.384 215.485 222.512V222.512C214.955 222.605 214.175 222.699 213.77 222.699C213.333 222.699 213.022 222.886 213.022 223.135C213.022 223.416 212.554 223.666 211.774 223.79C210.995 223.915 210.527 224.164 210.527 224.445C210.527 224.726 210.153 224.882 209.436 224.882C208.562 224.882 208.344 225.006 208.344 225.505C208.344 226.035 208.126 226.129 207.097 226.129C206.192 226.129 205.849 226.254 205.849 226.597C205.849 226.909 205.413 227.127 204.602 227.252C203.854 227.376 203.355 227.626 203.355 227.875C203.355 228.125 202.794 228.374 201.796 228.499C200.86 228.624 200.237 228.873 200.237 229.091C200.237 229.31 199.675 229.559 198.989 229.684C198.179 229.809 197.742 230.027 197.742 230.339C197.742 230.682 197.399 230.806 196.495 230.806V230.806C195.525 230.806 195.125 232.054 194.156 232.054V232.054V232.054C194.049 232.054 192.198 233.07 192.094 233.093C192.032 233.106 191.968 233.119 191.901 233.131C191.853 233.14 191.795 233.173 191.755 233.201C191.684 233.253 191.558 233.332 191.413 233.416C191.29 233.489 189.965 234.237 189.822 234.237V234.237C188.418 234.237 187.14 235.271 187.14 235.047C187.14 235.297 186.859 235.484 186.516 235.484C186.173 235.484 185.892 235.266 185.892 235.016C185.892 234.767 185.674 234.548 185.394 234.548C185.113 234.548 184.832 234.268 184.739 233.956C184.645 233.582 184.209 233.301 183.523 233.145C182.899 233.052 182.462 232.771 182.462 232.521C182.462 232.21 182.119 232.054 181.402 232.054C180.498 232.054 180.342 231.929 180.186 231.181C179.968 229.996 180.28 228.624 180.779 228.624C181.09 228.624 181.215 228.125 181.215 226.753C181.215 225.381 181.34 224.882 181.652 224.882C182.151 224.882 182.462 223.946 182.462 222.449C182.462 221.826 182.618 221.452 182.899 221.452C183.304 221.452 183.71 220.173 183.71 218.77C183.71 218.333 183.897 218.021 184.146 218.021C184.396 218.021 184.676 217.554 184.77 216.93C184.895 216.338 185.175 215.839 185.394 215.839C185.643 215.839 185.892 215.309 186.017 214.591C186.142 213.781 186.36 213.344 186.672 213.344C186.922 213.344 187.14 213.063 187.14 212.72C187.14 212.315 187.358 212.097 187.763 212.097C188.262 212.097 188.387 211.878 188.387 211.005C188.387 209.976 188.449 209.914 189.479 209.914C190.227 209.914 190.57 210.07 190.57 210.382C190.57 210.787 191.225 210.849 194.624 210.849C197.898 210.849 198.677 210.756 198.677 210.413C198.677 210.132 199.145 209.883 199.925 209.758C200.704 209.633 201.172 209.384 201.172 209.103C201.172 208.854 201.453 208.667 201.796 208.667C202.201 208.667 202.419 208.448 202.419 208.043C202.419 207.638 202.638 207.419 203.043 207.419C203.386 207.419 203.667 207.638 203.667 207.887ZM230.484 212.564C230.484 212.814 230.92 213.095 231.544 213.188C232.23 213.344 232.667 213.625 232.76 213.999C232.854 214.311 233.134 214.591 233.384 214.591C233.665 214.591 233.914 215.028 234.039 215.683C234.163 216.338 234.444 216.774 234.694 216.774C235.068 216.774 235.161 217.273 235.161 219.113C235.161 220.953 235.068 221.452 234.694 221.452C234.444 221.452 234.163 221.888 234.039 222.543C233.914 223.198 233.665 223.634 233.384 223.634C233.134 223.634 232.854 223.915 232.76 224.227C232.667 224.601 232.23 224.882 231.544 225.038C230.92 225.131 230.484 225.412 230.484 225.661C230.484 226.035 229.985 226.129 228.145 226.129C226.305 226.129 225.806 226.035 225.806 225.661C225.806 225.412 225.37 225.131 224.746 225.038C224.06 224.882 223.624 224.601 223.53 224.227C223.437 223.915 223.156 223.634 222.875 223.634C222.595 223.634 222.314 223.229 222.189 222.543C222.096 221.919 221.815 221.452 221.566 221.452C221.223 221.452 221.129 220.89 221.129 219.113C221.129 217.335 221.223 216.774 221.566 216.774C221.815 216.774 222.096 216.306 222.189 215.714C222.314 215.028 222.595 214.591 223 214.498C223.343 214.404 223.624 214.124 223.624 213.874C223.624 213.593 224.06 213.344 224.715 213.219C225.37 213.095 225.806 212.814 225.806 212.564C225.806 212.19 226.305 212.097 228.145 212.097C229.985 212.097 230.484 212.19 230.484 212.564ZM218.946 226.566C218.946 226.784 219.227 227.064 219.57 227.158C219.913 227.252 220.194 227.532 220.194 227.813C220.194 228.093 220.599 228.374 221.285 228.499C221.877 228.592 222.376 228.873 222.376 229.091C222.376 229.31 222.875 229.59 223.468 229.684V229.684C224.102 229.811 224.559 230.368 224.559 231.015V232.21C224.559 234.081 224.466 234.548 224.091 234.548C223.748 234.548 223.624 234.954 223.624 236.17C223.624 240.567 223.218 244.839 222.782 244.839C222.47 244.839 222.376 245.431 222.376 247.177V248.269C222.376 248.958 221.818 249.516 221.129 249.516V249.516C220.1 249.516 219.882 249.61 219.882 250.14C219.882 250.639 219.663 250.763 218.79 250.763C218.073 250.763 217.699 250.919 217.699 251.2C217.699 251.449 217.231 251.73 216.639 251.824C215.953 251.948 215.516 252.229 215.423 252.634C215.329 252.977 215.048 253.258 214.768 253.258C214.487 253.258 214.269 253.476 214.269 253.726C214.269 254.1 213.863 254.194 212.398 254.194C210.745 254.194 210.527 254.131 210.527 253.57C210.527 253.04 210.309 252.946 209.28 252.946C208.438 252.946 208.032 252.821 208.032 252.51C208.032 252.229 207.471 252.011 206.317 251.855C205.132 251.73 204.602 251.512 204.602 251.2C204.602 250.919 204.259 250.763 203.48 250.763C202.638 250.763 202.326 250.607 202.201 250.14C202.076 249.641 201.765 249.516 200.548 249.516C199.332 249.516 199.02 249.391 198.896 248.892C198.771 248.425 198.459 248.269 197.617 248.269C196.838 248.269 196.495 248.144 196.495 247.801C196.495 247.52 196.214 247.333 195.746 247.333C194.343 247.333 193.065 246.928 193.065 246.523C193.065 246.211 192.659 246.086 191.817 246.086C190.788 246.086 190.57 245.992 190.57 245.462C190.57 244.963 190.352 244.839 189.479 244.839V244.839C188.876 244.839 188.387 244.35 188.387 243.747V242.063C188.387 239.007 188.449 238.914 190.819 238.914C191.474 238.914 191.817 238.758 191.817 238.446C191.817 238.197 192.254 237.916 192.909 237.791C193.532 237.698 194 237.417 194 237.168C194 236.856 194.405 236.731 195.247 236.731C196.276 236.731 196.495 236.638 196.495 236.107C196.495 235.577 196.713 235.484 197.742 235.484C198.615 235.484 198.989 235.359 198.989 235.016C198.989 234.767 199.426 234.486 200.081 234.361C200.673 234.268 201.172 233.987 201.172 233.769C201.172 233.363 202.482 232.989 203.854 232.989C204.29 232.989 204.602 232.802 204.602 232.553C204.602 232.272 205.07 232.023 205.849 231.898C206.629 231.773 207.097 231.524 207.097 231.243C207.097 230.962 207.44 230.806 208.157 230.806C208.937 230.806 209.248 230.65 209.373 230.183C209.498 229.715 209.81 229.559 210.652 229.559C211.4 229.559 211.774 229.403 211.774 229.123C211.774 228.842 212.242 228.592 213.022 228.468C213.801 228.343 214.269 228.093 214.269 227.813C214.269 227.532 214.612 227.376 215.142 227.376C216.452 227.376 217.387 227.033 217.387 226.566C217.387 226.316 217.699 226.129 218.167 226.129C218.634 226.129 218.946 226.316 218.946 226.566ZM179.032 235.952C179.032 236.201 179.469 236.482 180.092 236.575C180.779 236.731 181.215 237.012 181.309 237.386C181.402 237.698 181.683 237.978 181.963 237.978C182.338 237.978 182.462 238.29 182.462 239.07C182.462 239.787 182.618 240.161 182.899 240.161C183.367 240.161 183.71 241.097 183.71 242.5C183.71 243.903 183.367 244.839 182.899 244.839C182.618 244.839 182.462 245.213 182.462 245.93C182.462 246.71 182.338 247.021 181.963 247.021C181.683 247.021 181.402 247.302 181.309 247.614C181.215 247.988 180.779 248.269 180.092 248.425C179.469 248.518 179.032 248.799 179.032 249.048C179.032 249.423 178.502 249.516 176.538 249.516C174.573 249.516 174.043 249.423 174.043 249.048C174.043 248.799 173.606 248.518 172.952 248.394C172.172 248.269 171.86 248.05 171.86 247.614C171.86 247.24 171.642 247.021 171.237 247.021C170.738 247.021 170.613 246.803 170.613 245.93C170.613 245.182 170.457 244.839 170.145 244.839C169.771 244.839 169.677 244.371 169.677 242.5C169.677 240.629 169.771 240.161 170.145 240.161C170.457 240.161 170.613 239.818 170.613 239.07C170.613 238.197 170.738 237.978 171.237 237.978C171.642 237.978 171.86 237.76 171.86 237.386C171.86 236.949 172.172 236.731 172.952 236.606C173.606 236.482 174.043 236.201 174.043 235.952C174.043 235.577 174.573 235.484 176.538 235.484C178.502 235.484 179.032 235.577 179.032 235.952ZM189.416 250.14C189.541 250.607 189.853 250.763 190.695 250.763C191.474 250.763 191.817 250.888 191.817 251.231C191.817 251.512 192.098 251.699 192.566 251.699C193.969 251.699 195.247 252.104 195.247 252.51C195.247 252.821 195.653 252.946 196.495 252.946C197.524 252.946 197.742 253.04 197.742 253.57C197.742 254.131 197.96 254.194 199.457 254.194C200.954 254.194 201.172 254.256 201.172 254.817C201.172 255.347 201.39 255.441 202.419 255.441C203.324 255.441 203.667 255.566 203.667 255.909C203.667 256.189 203.947 256.376 204.415 256.376C205.818 256.376 207.097 256.782 207.097 257.187C207.097 257.468 207.471 257.624 208.219 257.624C209.061 257.624 209.373 257.78 209.498 258.247C209.623 258.715 209.934 258.871 210.714 258.871V258.871C211.3 258.871 211.774 259.346 211.774 259.931V261.833C211.774 264.172 211.868 264.796 212.211 264.796C212.71 264.796 213.177 266.448 212.866 266.978C212.772 267.134 212.46 267.29 212.211 267.29C211.961 267.29 211.774 267.509 211.774 267.758C211.774 268.007 211.494 268.226 211.151 268.226C210.745 268.226 210.527 268.444 210.527 268.849C210.527 269.255 210.309 269.473 209.903 269.473C209.56 269.473 209.28 269.691 209.28 269.941C209.28 270.19 209.061 270.409 208.812 270.409C208.562 270.409 208.344 270.689 208.344 271.032C208.344 271.438 208.126 271.656 207.72 271.656C207.315 271.656 207.097 271.874 207.097 272.28C207.097 272.778 206.879 272.903 206.037 272.903C205.257 272.903 204.945 273.059 204.82 273.527C204.727 273.87 204.446 274.151 204.197 274.151C203.947 274.151 203.667 274.431 203.573 274.774C203.48 275.117 203.199 275.398 202.918 275.398C202.638 275.398 202.419 275.616 202.419 275.866C202.419 276.115 202.139 276.333 201.796 276.333C201.453 276.333 201.172 276.146 201.172 275.897C201.172 275.616 200.704 275.367 199.925 275.242C199.145 275.117 198.677 274.868 198.677 274.587C198.677 274.244 197.898 274.151 194.624 274.151C191.225 274.151 190.57 274.213 190.57 274.618C190.57 274.93 190.227 275.086 189.479 275.086C188.449 275.086 188.387 275.024 188.387 273.995C188.387 273.121 188.262 272.903 187.763 272.903C187.358 272.903 187.14 272.685 187.14 272.28C187.14 271.937 186.922 271.656 186.672 271.656C186.36 271.656 186.142 271.219 186.017 270.409C185.892 269.691 185.643 269.161 185.394 269.161C185.175 269.161 184.895 268.662 184.77 268.07C184.676 267.446 184.396 266.978 184.146 266.978C183.897 266.978 183.71 266.667 183.71 266.23C183.71 264.827 183.304 263.548 182.899 263.548C182.618 263.548 182.462 263.174 182.462 262.519C182.462 261.054 182.151 260.118 181.652 260.118C181.34 260.118 181.215 259.619 181.215 258.247C181.215 256.875 181.09 256.376 180.779 256.376C180.28 256.376 179.937 255.004 180.186 253.788C180.342 253.071 180.498 252.946 181.402 252.946C182.119 252.946 182.462 252.79 182.462 252.478C182.462 252.229 182.899 251.948 183.523 251.855C184.209 251.699 184.645 251.418 184.739 251.044C184.832 250.732 185.113 250.452 185.394 250.452C185.674 250.452 185.892 250.233 185.892 249.984C185.892 249.641 186.298 249.516 187.576 249.516C188.98 249.516 189.26 249.61 189.416 250.14ZM225.806 254.661C225.806 254.911 226.243 255.191 226.867 255.285C227.553 255.441 227.989 255.721 228.083 256.096C228.176 256.407 228.457 256.688 228.706 256.688C228.987 256.688 229.237 257.125 229.361 257.78C229.486 258.434 229.767 258.871 230.016 258.871C230.39 258.871 230.484 259.37 230.484 261.21C230.484 263.049 230.39 263.548 230.016 263.548C229.767 263.548 229.486 263.985 229.361 264.64C229.237 265.295 228.987 265.731 228.706 265.731C228.457 265.731 228.176 266.012 228.083 266.324C227.989 266.698 227.553 266.978 226.867 267.134C226.243 267.228 225.806 267.509 225.806 267.758C225.806 268.132 225.308 268.226 223.468 268.226C221.659 268.226 221.129 268.132 221.129 267.789C221.129 267.509 220.661 267.259 219.882 267.134C218.946 266.978 218.634 266.791 218.634 266.324C218.634 266.012 218.416 265.731 218.167 265.731C217.917 265.731 217.637 265.295 217.512 264.64C217.418 264.016 217.138 263.548 216.888 263.548C216.545 263.548 216.452 262.987 216.452 261.21C216.452 259.432 216.545 258.871 216.888 258.871C217.138 258.871 217.418 258.403 217.512 257.78C217.637 257.125 217.917 256.688 218.167 256.688C218.416 256.688 218.634 256.407 218.634 256.096C218.634 255.628 218.946 255.441 219.882 255.285C220.661 255.16 221.129 254.911 221.129 254.63C221.129 254.287 221.659 254.194 223.468 254.194C225.308 254.194 225.806 254.287 225.806 254.661ZM217.699 271.188C217.699 271.5 218.042 271.656 218.79 271.656C219.663 271.656 219.882 271.781 219.882 272.28C219.882 272.841 220.1 272.903 222.376 272.903C224.653 272.903 224.871 272.966 224.871 273.527C224.871 273.87 225.089 274.151 225.339 274.151C225.713 274.151 225.806 274.556 225.806 275.866C225.806 277.362 225.869 277.581 226.43 277.581C226.991 277.581 227.054 277.799 227.054 279.296C227.054 280.543 227.179 281.011 227.49 281.011C227.896 281.011 228.301 282.289 228.301 283.692C228.301 284.16 228.488 284.441 228.769 284.441C229.081 284.441 229.237 284.753 229.237 285.345C229.237 286.873 229.611 288.183 230.047 288.183C230.359 288.183 230.484 288.651 230.484 289.898C230.484 291.395 230.546 291.613 231.108 291.613C231.606 291.613 231.731 291.831 231.731 292.704C231.731 293.577 231.606 293.796 231.108 293.796C230.702 293.796 230.484 294.014 230.484 294.419C230.484 294.825 230.266 295.043 229.86 295.043C229.455 295.043 229.237 295.261 229.237 295.667C229.237 296.072 229.018 296.29 228.613 296.29C228.208 296.29 227.989 296.509 227.989 296.914C227.989 297.257 227.771 297.538 227.522 297.538C227.21 297.538 227.054 297.881 227.054 298.629V298.629C227.054 299.232 226.565 299.72 225.962 299.72H225.339C224.029 299.72 223.624 299.627 223.624 299.253C223.624 298.941 223.312 298.785 222.719 298.785C221.191 298.785 219.882 298.411 219.882 297.974C219.882 297.662 219.414 297.538 218.167 297.538C216.67 297.538 216.452 297.475 216.452 296.914C216.452 296.353 216.233 296.29 214.737 296.29C213.24 296.29 213.022 296.228 213.022 295.667C213.022 295.137 212.803 295.043 211.774 295.043C210.901 295.043 210.527 294.918 210.527 294.575C210.527 294.326 210.09 294.045 209.436 293.92C208.812 293.827 208.344 293.546 208.344 293.297C208.344 293.047 208.063 292.86 207.72 292.86C207.315 292.86 207.097 292.642 207.097 292.237C207.097 291.738 206.879 291.613 206.005 291.613C204.976 291.613 204.914 291.551 204.914 290.521C204.914 289.773 205.07 289.43 205.382 289.43C205.787 289.43 205.849 288.775 205.849 285.408C205.849 281.666 205.818 281.385 205.226 281.229C204.883 281.135 204.602 280.824 204.602 280.543C204.602 280.262 204.883 279.951 205.226 279.857C205.569 279.763 205.849 279.483 205.849 279.264C205.849 279.015 206.13 278.828 206.473 278.828C206.879 278.828 207.097 278.61 207.097 278.204C207.097 277.799 207.315 277.581 207.72 277.581C208.126 277.581 208.344 277.362 208.344 276.957C208.344 276.552 208.562 276.333 208.968 276.333C209.311 276.333 209.591 276.146 209.591 275.897C209.591 275.647 210.028 275.367 210.527 275.242C211.057 275.117 211.462 274.837 211.462 274.556C211.462 274.306 211.743 274.026 212.086 273.932C212.429 273.839 212.71 273.558 212.71 273.34C212.71 273.09 212.959 272.903 213.302 272.903C213.614 272.903 213.957 272.623 214.051 272.28C214.144 271.937 214.425 271.656 214.705 271.656C214.986 271.656 215.204 271.438 215.204 271.188C215.204 270.845 215.547 270.72 216.452 270.72C217.356 270.72 217.699 270.845 217.699 271.188ZM197.742 279.296C197.742 279.545 197.96 279.763 198.241 279.763C198.522 279.763 198.802 280.044 198.896 280.387C198.989 280.73 199.27 281.011 199.488 281.011C199.738 281.011 199.925 281.291 199.925 281.634C199.925 282.04 200.143 282.258 200.548 282.258C201.141 282.258 201.172 282.476 201.172 285.688C201.172 288.9 201.141 289.118 200.548 289.118C200.143 289.118 199.925 289.337 199.925 289.742C199.925 290.116 199.706 290.366 199.426 290.366C199.145 290.366 198.865 290.646 198.771 290.989C198.646 291.457 198.334 291.613 197.555 291.613C196.869 291.613 196.495 291.769 196.495 292.049C196.495 292.486 195.216 292.86 193.782 292.86C193.283 292.86 192.94 292.642 192.846 292.237C192.722 291.769 192.41 291.613 191.63 291.613C190.944 291.613 190.57 291.457 190.57 291.176C190.57 290.958 190.289 290.677 189.946 290.584C189.603 290.49 189.323 290.21 189.323 289.929C189.323 289.648 189.135 289.43 188.886 289.43C188.605 289.43 188.356 288.962 188.231 288.183C188.106 287.403 187.857 286.935 187.576 286.935C187.265 286.935 187.14 286.499 187.14 285.252C187.14 283.848 187.233 283.568 187.763 283.412C188.231 283.287 188.387 282.975 188.387 282.133C188.387 281.229 188.512 281.011 189.011 281.011C189.354 281.011 189.634 280.824 189.634 280.574C189.634 280.356 189.915 280.075 190.258 279.982C190.601 279.888 190.882 279.608 190.882 279.327C190.882 278.89 191.381 278.828 194.312 278.828C197.149 278.828 197.742 278.921 197.742 279.296ZM239.839 296.758C239.839 297.07 240.275 297.288 241.086 297.413C242.022 297.569 242.333 297.756 242.333 298.192C242.333 298.535 242.552 298.785 242.801 298.785C243.051 298.785 243.331 299.221 243.456 299.876C243.55 300.5 243.83 300.968 244.08 300.968C244.423 300.968 244.516 301.529 244.516 303.306C244.516 305.084 244.423 305.645 244.08 305.645C243.83 305.645 243.55 306.113 243.456 306.737C243.331 307.391 243.051 307.828 242.801 307.828C242.552 307.828 242.333 308.077 242.333 308.42C242.333 308.857 242.022 309.044 241.086 309.2C240.275 309.325 239.839 309.543 239.839 309.855C239.839 310.229 239.371 310.323 237.5 310.323C235.66 310.323 235.161 310.229 235.161 309.855C235.161 309.605 234.725 309.325 234.101 309.231C233.415 309.075 232.979 308.795 232.885 308.42C232.791 308.109 232.511 307.828 232.261 307.828C231.981 307.828 231.731 307.391 231.606 306.737C231.482 306.082 231.201 305.645 230.952 305.645C230.577 305.645 230.484 305.146 230.484 303.306C230.484 301.467 230.577 300.968 230.952 300.968C231.201 300.968 231.482 300.531 231.575 299.908C231.731 299.221 232.012 298.785 232.386 298.691C232.698 298.598 232.979 298.317 232.979 298.068C232.979 297.787 233.415 297.538 234.07 297.413C234.725 297.288 235.161 297.008 235.161 296.758C235.161 296.384 235.66 296.29 237.5 296.29C239.371 296.29 239.839 296.384 239.839 296.758Z" fill="white"/>
</svg>
